<?xml version="1.0" encoding="UTF-8" standalone="no"?>
<svg
   xmlns:dc="http://purl.org/dc/elements/1.1/"
   xmlns:cc="http://creativecommons.org/ns#"
   xmlns:rdf="http://www.w3.org/1999/02/22-rdf-syntax-ns#"
   xmlns:svg="http://www.w3.org/2000/svg"
   xmlns="http://www.w3.org/2000/svg"
   xmlns:sodipodi="http://sodipodi.sourceforge.net/DTD/sodipodi-0.dtd"
   xmlns:inkscape="http://www.inkscape.org/namespaces/inkscape"
   id="Layer_1"
   data-name="Layer 1"
   viewBox="0 0 408.38 363.11"
   version="1.1"
   sodipodi:docname="cat.svg"
   inkscape:version="0.92.4 (5da689c313, 2019-01-14)">
  <metadata
     id="metadata1590">
    <rdf:RDF>
      <cc:Work
         rdf:about="">
        <dc:format>image/svg+xml</dc:format>
        <dc:type
           rdf:resource="http://purl.org/dc/dcmitype/StillImage" />
        <dc:title>cat_01</dc:title>
      </cc:Work>
    </rdf:RDF>
  </metadata>
  <sodipodi:namedview
     pagecolor="#ffffff"
     bordercolor="#666666"
     borderopacity="1"
     objecttolerance="10"
     gridtolerance="10"
     guidetolerance="10"
     inkscape:pageopacity="0"
     inkscape:pageshadow="2"
     inkscape:window-width="1276"
     inkscape:window-height="1400"
     id="namedview1588"
     showgrid="false"
     inkscape:zoom="0.91915512"
     inkscape:cx="98.795791"
     inkscape:cy="181.55499"
     inkscape:window-x="1280"
     inkscape:window-y="18"
     inkscape:window-maximized="0"
     inkscape:current-layer="Layer_1" />
  <defs
     id="defs1575">
    <style
       id="style1573">
      .cls-1 {
        fill: #1d1d1b;
      }
    </style>
  </defs>
  <title
     id="title1577">cat_01</title>
  <ellipse
     style="color:#000000;clip-rule:nonzero;display:inline;overflow:visible;visibility:visible;opacity:1;isolation:auto;mix-blend-mode:normal;color-interpolation:sRGB;color-interpolation-filters:linearRGB;solid-color:#000000;solid-opacity:1;fill:#7f7f7e;fill-opacity:1;fill-rule:evenodd;stroke:none;stroke-width:1.00888908;stroke-linecap:round;stroke-linejoin:round;stroke-miterlimit:10;stroke-dasharray:none;stroke-dashoffset:0;stroke-opacity:1;color-rendering:auto;image-rendering:auto;shape-rendering:auto;text-rendering:auto;enable-background:accumulate"
     id="path2834"
     cx="37.311089"
     cy="206.36494"
     rx="28.46413"
     ry="10.962536" />
  <g
     id="g1585">
    <path
       class="cls-1"
       d="M594,500.56c-.52-8.95,0-9.43-.88-13.26-1.29-5.8-2.63-5.71-4.42-12-1.68-5.93-.71-6.73-2.48-16.1-2-10.35-3.7-12.27-5-13.26-3-2.38-6.23-1.84-9.38-2.13-13.37-1.21-25.35-17.31-29.36-29.89-2.58-8.09-.07-9.07-3.71-22.82-2.48-9.32-4.9-13.64-7.61-17-3.51-4.32-5.15-4.11-6.9-7.25-3.67-6.6-.05-14.08,2.3-22.29,3.91-13.64-.31-13.08,2.65-34.14.72-5.07,3.5-15.77,9-37,3.67-14.06,5.46-20.67,7.79-31.31,4.84-22.14,4.67-28.13,2.3-34.14-3.32-8.43-9.64-13.58-12.74-16.1-5.62-4.57-10.94-6.41-21.58-10.08-3.76-1.3-12.17-4-18-1.77a7.46,7.46,0,0,0-4.25,3.36,6.59,6.59,0,0,0-.35,4.6c1.26,4.19,7.65,4.53,17,8,7.48,2.75,13.09,4.81,16.81,9.55s4,10.46,4.06,17c.12,8.07-1.44,15.52-8.13,33.43-7,18.71-6.87,14.81-8.49,21.23-2.09,8.23-3.1,19.22-5.13,41.21a37.65,37.65,0,0,1-2.66,11c-3,7.31-7.21,10.77-8.13,11.5a27.29,27.29,0,0,1-5.39,3.18c-16.14,7-103,9.3-133.31,14.2-7.2,1.16-15.61,3.19-25.85,0-7.64-2.38-10.75-5.94-19.26-6.59-7.1-.55-9.37,1.58-16.22,2-5.79.38-14.2-.5-24.84-6.59l-5.58.51-17.74-1.52-2-6.59-5.06-2.53-7.1,5.07-3,5.06-20.78,2.54c-2.84-1.43-7.09-3.66-12.17-6.59-7.22-4.17-11-6.82-11.66-6.08s2.7,3.83,6.08,9.63c2.4,4.1,6.18,10.58,6.09,18.25-.11,8.73-7.31,9.5-6.59,16.72.62,6.26,5.78,7.39,5.69,14.67,0,2.64-.72,4.49-.17,8.49.35,2.57.72,5,2.65,6.72a8.49,8.49,0,0,0,5.84,1.95,10.38,10.38,0,0,0,2.12,2.3,12,12,0,0,0,8.49,2.3c4.48-.54,4.91-3.42,9.38-4.6,1.35-.36,3.28-.61,9.37.88,8.13,2,12.64,3.1,18,6.72a41.63,41.63,0,0,1,12,12.56c3.53,5.47,6,9.27,5.48,14-.43,4.06-2.83,6.48-10.79,14.15-15.59,15-15.54,14.57-17,16.62-5.78,8.31-6.95,16.41-8.13,24.59-1.06,7.35-1.87,13.55,1.94,17.51.34.35,3.66,3.7,7.78,3,3.43-.57,5.37-3.59,6-4.6,2.61-4.06,1.32-7.18,2.3-12.56a32.06,32.06,0,0,1,5.84-12.38c2-2.67,5.16-5.54,19.63-10.79,15.88-5.76,20.9-5.48,31.13-10.79a78.08,78.08,0,0,0,11.67-7.43L324.28,493l-.89,5.83-5.48,9.38a13.12,13.12,0,0,0-3.36-.89c-3-.37-9.06,0-11.14,4.25a7.1,7.1,0,0,0,4.24,10.08c2.84,1.11,12.5,4.89,20.52-.18,1.83-1.15,3.58-3.42,7.07-8a72.83,72.83,0,0,0,8-11.85c3.67-7.38,2.56-11.47,4.25-19.81a62.49,62.49,0,0,1,9-21.58c1-.11,3.23-.35,6-.71,39.37-5.07,60.19-16.77,69.52-7.25a12.14,12.14,0,0,1,2.12,3,126,126,0,0,0,8.14,11.85c10.05,13,15.08,19.46,22.28,25.65,1.94,1.66,5.28,4.39,5.84,8.67.3,2.24-.21,4.6-1.94,7.78-4.72,8.64-13.47,14.13-18.05,16.63a12.79,12.79,0,0,0-9.37-1.6c-.84.2-6.63,1.57-8,6.55a8.22,8.22,0,0,0,2.48,8.31,8.1,8.1,0,0,0,4.95,1.42c13.93.71,16.18,3.15,20.87.7,1.55-.8.85-.83,5.48-5,5.18-4.6,7.69-6,12.21-9.55A92.61,92.61,0,0,0,492.85,514c6.17-7.11,8.11-12,9-15.21,1.16-4.12,1-6.9.17-9.2s-2-3.12-3.36-4.95c-4.24-5.78-3.67-13.25-3.18-19.63a47.28,47.28,0,0,1,2.12-10.79l18.93,8.14,51.29,12.55c.76,2.46,1.82,6,3,10.26,2.35,8.4,3.53,12.68,3.89,16.45.46,4.77-.16,5.35.53,11.68s1.65,8.6,3.19,10.26c.41.45,3.14,3.38,6.72,3.18,5.9-.34,9-9,9.2-9.55C595.66,513.47,594.7,512.23,594,500.56ZM202.63,391.25c-.19.14-.41.07-2.09-.52s-2.39-.83-2.45-.88a4.88,4.88,0,0,1-1.93-5.07c.08-.32.5-2,1.58-2.27,1.63-.35,3.43,3.06,3.85,3.85C202.53,388.15,203.37,390.75,202.63,391.25Zm22.58-2.79a7.54,7.54,0,0,1-4,4,7.32,7.32,0,0,1-5.6-.18l-2.1.53a7.59,7.59,0,0,1,1.05-6.12c1.46-2,3.56-2.43,5.25-2.8,1.51-.34,4.46-1,5.6.52C226.31,385.66,225.53,387.65,225.21,388.46Z"
       transform="translate(-186.63 -179.2)"
       id="path1579" />
    <path
       class="cls-1"
       d="M594,500.56c-.52-8.95,0-9.43-.88-13.26-1.29-5.8-2.63-5.71-4.42-12-1.68-5.93-.71-6.73-2.48-16.1-2-10.35-3.7-12.27-5-13.26-3-2.38-6.23-1.84-9.38-2.13-13.37-1.21-25.35-17.31-29.36-29.89-2.58-8.09-.07-9.07-3.71-22.82-2.48-9.32-4.9-13.64-7.61-17-3.51-4.32-5.15-4.11-6.9-7.25-3.67-6.6-.05-14.08,2.3-22.29,3.91-13.64-.31-13.08,2.65-34.14.72-5.07,3.5-15.77,9-37,3.67-14.06,5.46-20.67,7.79-31.31,4.84-22.14,4.67-28.13,2.3-34.14-3.32-8.43-9.64-13.58-12.74-16.1-5.62-4.57-10.94-6.41-21.58-10.08-3.76-1.3-12.17-4-18-1.77a7.46,7.46,0,0,0-4.25,3.36,6.59,6.59,0,0,0-.35,4.6c1.26,4.19,7.65,4.53,17,8,7.48,2.75,13.09,4.81,16.81,9.55s4,10.46,4.06,17c.12,8.07-1.44,15.52-8.13,33.43-7,18.71-6.87,14.81-8.49,21.23-2.09,8.23-3.1,19.22-5.13,41.21a37.65,37.65,0,0,1-2.66,11c-3,7.31-7.21,10.77-8.13,11.5a27.29,27.29,0,0,1-5.39,3.18c-16.14,7-103,9.3-133.31,14.2-7.2,1.16-15.61,3.19-25.85,0-7.64-2.38-10.75-5.94-19.26-6.59-7.1-.55-9.37,1.58-16.22,2-5.79.38-14.2-.5-24.84-6.59l-5.58.51-17.74-1.52-2-6.59-5.06-2.53-7.1,5.07-3,5.06-20.78,2.54c-2.84-1.43-7.09-3.66-12.17-6.59-7.22-4.17-11-6.82-11.66-6.08s2.7,3.83,6.08,9.63c2.4,4.1,6.18,10.58,6.09,18.25-.11,8.73-7.31,9.5-6.59,16.72.62,6.26,5.78,7.39,5.69,14.67,0,2.64-.72,4.49-.17,8.49.35,2.57.72,5,2.65,6.72a8.49,8.49,0,0,0,5.84,1.95,10.38,10.38,0,0,0,2.12,2.3,12,12,0,0,0,8.49,2.3c4.48-.54,4.91-3.42,9.38-4.6,1.35-.36,3.28-.61,9.37.88,8.13,2,12.64,3.1,18,6.72a41.63,41.63,0,0,1,12,12.56c3.53,5.47,6,9.27,5.48,14-.43,4.06-2.83,6.48-10.79,14.15-15.59,15-15.54,14.57-17,16.62-5.78,8.31-6.95,16.41-8.13,24.59-1.06,7.35-1.87,13.55,1.94,17.51.34.35,3.66,3.7,7.78,3,3.43-.57,5.37-3.59,6-4.6,2.61-4.06,1.32-7.18,2.3-12.56a32.06,32.06,0,0,1,5.84-12.38c2-2.67,5.16-5.54,19.63-10.79,15.88-5.76,20.9-5.48,31.13-10.79a78.08,78.08,0,0,0,11.67-7.43L324.28,493l-.89,5.83-5.48,9.38a13.12,13.12,0,0,0-3.36-.89c-3-.37-9.06,0-11.14,4.25a7.1,7.1,0,0,0,4.24,10.08c2.84,1.11,12.5,4.89,20.52-.18,1.83-1.15,3.58-3.42,7.07-8a72.83,72.83,0,0,0,8-11.85c3.67-7.38,2.56-11.47,4.25-19.81a62.49,62.49,0,0,1,9-21.58c1-.11,3.23-.35,6-.71,39.37-5.07,60.19-16.77,69.52-7.25a12.14,12.14,0,0,1,2.12,3,126,126,0,0,0,8.14,11.85c10.05,13,15.08,19.46,22.28,25.65,1.94,1.66,5.28,4.39,5.84,8.67.3,2.24-.21,4.6-1.94,7.78-4.72,8.64-13.47,14.13-18.05,16.63a12.79,12.79,0,0,0-9.37-1.6c-.84.2-6.63,1.57-8,6.55a8.22,8.22,0,0,0,2.48,8.31,8.1,8.1,0,0,0,4.95,1.42c13.93.71,16.18,3.15,20.87.7,1.55-.8.85-.83,5.48-5,5.18-4.6,7.69-6,12.21-9.55A92.61,92.61,0,0,0,492.85,514c6.17-7.11,8.11-12,9-15.21,1.16-4.12,1-6.9.17-9.2s-2-3.12-3.36-4.95c-4.24-5.78-3.67-13.25-3.18-19.63a47.28,47.28,0,0,1,2.12-10.79l18.93,8.14,51.29,12.55c.76,2.46,1.82,6,3,10.26,2.35,8.4,3.53,12.68,3.89,16.45.46,4.77-.16,5.35.53,11.68s1.65,8.6,3.19,10.26c.41.45,3.14,3.38,6.72,3.18,5.9-.34,9-9,9.2-9.55C595.66,513.47,594.7,512.23,594,500.56ZM202.63,391.25c-.19.14-.41.07-2.09-.52s-2.39-.83-2.45-.88a4.88,4.88,0,0,1-1.93-5.07c.08-.32.5-2,1.58-2.27,1.63-.35,3.43,3.06,3.85,3.85C202.53,388.15,203.37,390.75,202.63,391.25Zm22.58-2.79a7.54,7.54,0,0,1-4,4,7.32,7.32,0,0,1-5.6-.18l-2.1.53a7.59,7.59,0,0,1,1.05-6.12c1.46-2,3.56-2.43,5.25-2.8,1.51-.34,4.46-1,5.6.52C226.31,385.66,225.53,387.65,225.21,388.46Z"
       transform="translate(-186.63 -179.2)"
       id="path1581" />
    <path
       class="cls-1"
       d="M594,500.56c-.52-8.95,0-9.43-.88-13.26-1.29-5.8-2.63-5.71-4.42-12-1.68-5.93-.71-6.73-2.48-16.1-2-10.35-3.7-12.27-5-13.26-3-2.38-6.23-1.84-9.38-2.13-13.37-1.21-25.35-17.31-29.36-29.89-2.58-8.09-.07-9.07-3.71-22.82-2.48-9.32-4.9-13.64-7.61-17-3.51-4.32-5.15-4.11-6.9-7.25-3.67-6.6-.05-14.08,2.3-22.29,3.91-13.64-.31-13.08,2.65-34.14.72-5.07,3.5-15.77,9-37,3.67-14.06,5.46-20.67,7.79-31.31,4.84-22.14,4.67-28.13,2.3-34.14-3.32-8.43-9.64-13.58-12.74-16.1-5.62-4.57-10.94-6.41-21.58-10.08-3.76-1.3-12.17-4-18-1.77a7.46,7.46,0,0,0-4.25,3.36,6.59,6.59,0,0,0-.35,4.6c1.26,4.19,7.65,4.53,17,8,7.48,2.75,13.09,4.81,16.81,9.55s4,10.46,4.06,17c.12,8.07-1.44,15.52-8.13,33.43-7,18.71-6.87,14.81-8.49,21.23-2.09,8.23-3.1,19.22-5.13,41.21a37.65,37.65,0,0,1-2.66,11c-3,7.31-7.21,10.77-8.13,11.5a27.29,27.29,0,0,1-5.39,3.18c-16.14,7-103,9.3-133.31,14.2-7.2,1.16-15.61,3.19-25.85,0-7.64-2.38-10.75-5.94-19.26-6.59-7.1-.55-9.37,1.58-16.22,2-5.79.38-14.2-.5-24.84-6.59l-5.58.51-17.74-1.52-2-6.59-5.06-2.53-7.1,5.07-3,5.06-20.78,2.54c-2.84-1.43-7.09-3.66-12.17-6.59-7.22-4.17-11-6.82-11.66-6.08s2.7,3.83,6.08,9.63c2.4,4.1,6.18,10.58,6.09,18.25-.11,8.73-7.31,9.5-6.59,16.72.62,6.26,5.78,7.39,5.69,14.67,0,2.64-.72,4.49-.17,8.49.35,2.57.72,5,2.65,6.72a8.49,8.49,0,0,0,5.84,1.95,10.38,10.38,0,0,0,2.12,2.3,12,12,0,0,0,8.49,2.3c4.48-.54,4.91-3.42,9.38-4.6,1.35-.36,3.28-.61,9.37.88,8.13,2,12.64,3.1,18,6.72a41.63,41.63,0,0,1,12,12.56c3.53,5.47,6,9.27,5.48,14-.43,4.06-2.83,6.48-10.79,14.15-15.59,15-15.54,14.57-17,16.62-5.78,8.31-6.95,16.41-8.13,24.59-1.06,7.35-1.87,13.55,1.94,17.51.34.35,3.66,3.7,7.78,3,3.43-.57,5.37-3.59,6-4.6,2.61-4.06,1.32-7.18,2.3-12.56a32.06,32.06,0,0,1,5.84-12.38c2-2.67,5.16-5.54,19.63-10.79,15.88-5.76,20.9-5.48,31.13-10.79a78.08,78.08,0,0,0,11.67-7.43L324.28,493l-.89,5.83-5.48,9.38a13.12,13.12,0,0,0-3.36-.89c-3-.37-9.06,0-11.14,4.25a7.1,7.1,0,0,0,4.24,10.08c2.84,1.11,12.5,4.89,20.52-.18,1.83-1.15,3.58-3.42,7.07-8a72.83,72.83,0,0,0,8-11.85c3.67-7.38,2.56-11.47,4.25-19.81a62.49,62.49,0,0,1,9-21.58c1-.11,3.23-.35,6-.71,39.37-5.07,60.19-16.77,69.52-7.25a12.14,12.14,0,0,1,2.12,3,126,126,0,0,0,8.14,11.85c10.05,13,15.08,19.46,22.28,25.65,1.94,1.66,5.28,4.39,5.84,8.67.3,2.24-.21,4.6-1.94,7.78-4.72,8.64-13.47,14.13-18.05,16.63a12.79,12.79,0,0,0-9.37-1.6c-.84.2-6.63,1.57-8,6.55a8.22,8.22,0,0,0,2.48,8.31,8.1,8.1,0,0,0,4.95,1.42c13.93.71,16.18,3.15,20.87.7,1.55-.8.85-.83,5.48-5,5.18-4.6,7.69-6,12.21-9.55A92.61,92.61,0,0,0,492.85,514c6.17-7.11,8.11-12,9-15.21,1.16-4.12,1-6.9.17-9.2s-2-3.12-3.36-4.95c-4.24-5.78-3.67-13.25-3.18-19.63a47.28,47.28,0,0,1,2.12-10.79l18.93,8.14,51.29,12.55c.76,2.46,1.82,6,3,10.26,2.35,8.4,3.53,12.68,3.89,16.45.46,4.77-.16,5.35.53,11.68s1.65,8.6,3.19,10.26c.41.45,3.14,3.38,6.72,3.18,5.9-.34,9-9,9.2-9.55C595.66,513.47,594.7,512.23,594,500.56ZM202.63,391.25c-.19.14-.41.07-2.09-.52s-2.39-.83-2.45-.88a4.88,4.88,0,0,1-1.93-5.07c.08-.32.5-2,1.58-2.27,1.63-.35,3.43,3.06,3.85,3.85C202.53,388.15,203.37,390.75,202.63,391.25Zm22.58-2.79a7.54,7.54,0,0,1-4,4,7.32,7.32,0,0,1-5.6-.18l-2.1.53a7.59,7.59,0,0,1,1.05-6.12c1.46-2,3.56-2.43,5.25-2.8,1.51-.34,4.46-1,5.6.52C226.31,385.66,225.53,387.65,225.21,388.46Z"
       transform="translate(-186.63 -179.2)"
       id="path1583"
       style="fill:#373737;fill-opacity:1" />
  </g>
</svg>
