<?xml version="1.0" encoding="UTF-8" standalone="no"?>
<!-- Created with Inkscape (http://www.inkscape.org/) -->

<svg
   xmlns:dc="http://purl.org/dc/elements/1.1/"
   xmlns:cc="http://creativecommons.org/ns#"
   xmlns:rdf="http://www.w3.org/1999/02/22-rdf-syntax-ns#"
   xmlns:svg="http://www.w3.org/2000/svg"
   xmlns="http://www.w3.org/2000/svg"
   xmlns:sodipodi="http://sodipodi.sourceforge.net/DTD/sodipodi-0.dtd"
   xmlns:inkscape="http://www.inkscape.org/namespaces/inkscape"
   width="23.932526mm"
   height="24.023191mm"
   viewBox="0 0 23.932526 24.023191"
   version="1.1"
   id="svg1764"
   inkscape:version="0.92.4 (5da689c313, 2019-01-14)"
   sodipodi:docname="internet.svg">
  <defs
     id="defs1758" />
  <sodipodi:namedview
     id="base"
     pagecolor="#ffffff"
     bordercolor="#666666"
     borderopacity="1.0"
     inkscape:pageopacity="0.0"
     inkscape:pageshadow="2"
     inkscape:zoom="0.35"
     inkscape:cx="-46.201723"
     inkscape:cy="-219.19473"
     inkscape:document-units="mm"
     inkscape:current-layer="layer1"
     showgrid="false"
     fit-margin-top="0"
     fit-margin-left="0"
     fit-margin-right="0"
     fit-margin-bottom="0"
     inkscape:window-width="849"
     inkscape:window-height="1400"
     inkscape:window-x="1707"
     inkscape:window-y="18"
     inkscape:window-maximized="0" />
  <metadata
     id="metadata1761">
    <rdf:RDF>
      <cc:Work
         rdf:about="">
        <dc:format>image/svg+xml</dc:format>
        <dc:type
           rdf:resource="http://purl.org/dc/dcmitype/StillImage" />
        <dc:title></dc:title>
      </cc:Work>
    </rdf:RDF>
  </metadata>
  <g
     inkscape:label="Layer 1"
     inkscape:groupmode="layer"
     id="layer1"
     transform="translate(-16.003968,-66.81487)">
    <path
       style="fill:#373737;fill-opacity:1;stroke-width:0.18345617"
       d="m 26.78933,90.798877 c -1.68749,-0.285085 -2.63403,-0.556415 -3.76086,-1.078114 -4.20566,-1.947072 -6.77238,-5.713987 -7.00562,-10.281479 -0.15938,-3.12059 0.68845,-5.783812 2.61003,-8.198825 1.50605,-1.892777 4.23607,-3.606508 6.6888,-4.198797 1.40228,-0.338626 4.2336,-0.290991 5.68714,0.09572 3.92076,1.043047 7.2707,4.231892 8.49073,8.082439 0.58259,1.838729 0.58259,5.316057 0,7.154786 -1.2093,3.816677 -4.61375,7.078374 -8.39901,8.046824 -1.16745,0.298695 -3.54522,0.506881 -4.31121,0.377473 z m 0.55036,-3.37925 V 85.21815 h -1.83001 -1.83003 l 0.17484,0.459886 c 0.28541,0.750651 0.73107,1.58514 1.44032,2.696927 0.63918,1.001949 0.77646,1.0941 1.81556,1.218654 0.17225,0.02065 0.22932,-0.52046 0.22932,-2.17399 z m 2.53001,1.790269 c 0.30664,-0.254468 1.36227,-2.054474 1.84534,-3.146539 L 32.08891,85.21815 H 30.3564 28.62388 v 2.221366 2.221366 l 0.50349,-0.126372 c 0.2769,-0.0695 0.61096,-0.21558 0.74233,-0.324614 z m 5.59549,-2.707842 1.32249,-1.272246 -1.78869,-0.0052 c -1.35037,-0.0041 -1.7887,0.05277 -1.7887,0.233196 0,0.131452 -0.34802,0.936367 -0.77339,1.788689 -0.42536,0.852322 -0.80554,1.617006 -0.84484,1.699295 -0.0393,0.0823 0.51851,-0.147489 1.23958,-0.510619 0.82693,-0.416433 1.79941,-1.130034 2.63355,-1.932491 z M 23.84267,88.320968 C 23.62089,88.0095 23.20759,87.204585 22.92423,86.532269 l -0.51519,-1.222392 -1.61658,-0.04512 -1.61657,-0.04513 1.28522,1.237623 c 1.09198,1.051535 3.12589,2.408621 3.63473,2.425194 0.0825,0.0031 -0.0314,-0.249935 -0.25317,-0.561413 z m -2.11043,-5.625337 c -0.13167,-0.681083 -0.29196,-1.713029 -0.3562,-2.293205 l -0.1168,-1.05487 h -2.03008 -2.03008 l 0.11753,0.999976 c 0.0646,0.549972 0.33324,1.581918 0.59689,2.293195 l 0.47935,1.29324 h 1.78939 1.7894 z m 5.60745,-1.05488 v -2.293195 h -2.41146 -2.41145 l 0.11158,1.195017 c 0.0613,0.657271 0.21367,1.689207 0.33842,2.293205 l 0.22683,1.098189 h 2.07304 2.07304 z m 5.30764,1.605245 c 0.19283,-0.71707 0.55302,-3.020798 0.55933,-3.577399 0.003,-0.288823 -0.22649,-0.321041 -2.28957,-0.321041 h -2.29321 v 2.293195 2.293216 h 1.91923 1.91921 z m 5.30175,-0.275182 c 0.50623,-1.288355 0.76263,-2.30442 0.76386,-3.027024 l 7.1e-4,-0.596234 h -2.20148 -2.20148 l -0.003,0.963143 c -0.002,0.529733 -0.12557,1.541005 -0.27518,2.247264 -0.14959,0.706269 -0.27199,1.304805 -0.27199,1.330062 0,0.0252 0.85724,0.04595 1.90498,0.04595 h 1.90498 z M 21.37604,77.191948 c 0.0642,-0.580187 0.22453,-1.612122 0.3562,-2.293205 l 0.2394,-1.238325 h -1.7894 -1.78939 l -0.47935,1.293229 c -0.26365,0.711277 -0.53225,1.743212 -0.59689,2.293205 l -0.11753,0.999966 h 2.03008 2.03008 z m 5.96365,-1.244345 v -2.299205 l -2.05222,0.05184 -2.05222,0.05184 -0.23563,0.917284 c -0.1296,0.504506 -0.29071,1.51581 -0.35802,2.247336 l -0.12237,1.330052 h 2.41023 2.41023 z m 5.86697,1.978164 c -0.006,-0.556591 -0.3665,-2.860319 -0.55933,-3.577389 l -0.18501,-0.68796 h -1.91921 -1.91923 v 2.293195 2.293205 h 2.29321 c 2.06308,0 2.29283,-0.03222 2.28957,-0.321051 z m 5.50628,-0.275183 c -0.001,-0.722615 -0.25763,-1.738679 -0.76386,-3.027024 l -0.37846,-0.963142 h -1.90498 c -1.04773,0 -1.90498,0.02065 -1.90498,0.04595 0,0.0252 0.1224,0.623784 0.272,1.330052 0.14959,0.706269 0.27343,1.717542 0.27518,2.247275 l 0.003,0.963142 h 2.20148 2.20147 l -0.001,-0.596223 z M 22.92423,71.062095 c 0.28336,-0.672306 0.69666,-1.477221 0.91844,-1.788699 0.22179,-0.311458 0.34727,-0.566298 0.27885,-0.566298 -0.48163,0 -2.59536,1.402945 -3.66128,2.430089 l -1.28435,1.237623 1.61657,-0.04513 1.61658,-0.04512 z m 4.41546,-0.895661 v -2.20979 l -0.68796,0.124378 c -0.37838,0.06846 -0.69522,0.134065 -0.70409,0.145899 -0.72816,0.971527 -1.73496,2.747309 -2.096,3.696903 l -0.17199,0.4524 h 1.83003 1.83001 z m 4.37535,1.364583 c -0.48307,-1.092075 -1.5387,-2.892071 -1.84534,-3.14655 -0.13137,-0.109034 -0.46543,-0.255108 -0.74233,-0.324613 l -0.50349,-0.126362 v 2.221366 2.221366 h 1.73252 1.73251 z m 3.75015,-0.438697 c -0.83414,-0.802457 -1.80662,-1.516058 -2.63355,-1.932491 -0.72107,-0.363131 -1.27889,-0.592909 -1.23958,-0.510619 0.0393,0.0823 0.41948,0.846963 0.84484,1.699285 0.42537,0.852322 0.77339,1.657237 0.77339,1.788699 0,0.18045 0.43833,0.237595 1.7887,0.233196 l 1.78869,-0.0052 -1.32249,-1.272246 z"
       id="path1040"
       inkscape:connector-curvature="0" />
  </g>
</svg>
