<?xml version="1.0" encoding="UTF-8" standalone="no"?>
<!-- Created with Inkscape (http://www.inkscape.org/) -->

<svg
   xmlns:dc="http://purl.org/dc/elements/1.1/"
   xmlns:cc="http://creativecommons.org/ns#"
   xmlns:rdf="http://www.w3.org/1999/02/22-rdf-syntax-ns#"
   xmlns:svg="http://www.w3.org/2000/svg"
   xmlns="http://www.w3.org/2000/svg"
   xmlns:sodipodi="http://sodipodi.sourceforge.net/DTD/sodipodi-0.dtd"
   xmlns:inkscape="http://www.inkscape.org/namespaces/inkscape"
   width="5.4294863mm"
   height="5.4165735mm"
   viewBox="0 0 5.4294863 5.4165735"
   version="1.1"
   id="svg2095"
   inkscape:version="0.92.4 (5da689c313, 2019-01-14)"
   sodipodi:docname="key.svg">
  <defs
     id="defs2089" />
  <sodipodi:namedview
     id="base"
     pagecolor="#ffffff"
     bordercolor="#666666"
     borderopacity="1.0"
     inkscape:pageopacity="0.0"
     inkscape:pageshadow="2"
     inkscape:zoom="7.9195959"
     inkscape:cx="9.1364516"
     inkscape:cy="-30.942321"
     inkscape:document-units="mm"
     inkscape:current-layer="g4580"
     showgrid="false"
     inkscape:window-width="1276"
     inkscape:window-height="1400"
     inkscape:window-x="1280"
     inkscape:window-y="18"
     inkscape:window-maximized="0"
     fit-margin-top="0"
     fit-margin-left="0"
     fit-margin-right="0"
     fit-margin-bottom="0" />
  <metadata
     id="metadata2092">
    <rdf:RDF>
      <cc:Work
         rdf:about="">
        <dc:format>image/svg+xml</dc:format>
        <dc:type
           rdf:resource="http://purl.org/dc/dcmitype/StillImage" />
        <dc:title></dc:title>
      </cc:Work>
    </rdf:RDF>
  </metadata>
  <g
     inkscape:label="Layer 1"
     inkscape:groupmode="layer"
     id="layer1"
     transform="translate(-47.178114,-64.482189)">
    <g
       id="g4580"
       transform="translate(-71.094176,-13.75009)">
      <path
         style="fill:#fbf0d1;stroke-width:0.00675102"
         d="m 118.49233,83.645454 -0.21604,-0.0037 -0.002,-0.411701 -0.002,-0.4117 0.91144,-0.911533 c 0.50129,-0.501343 0.91144,-0.914597 0.91144,-0.918341 0,-0.0037 -0.0425,-0.04926 -0.0945,-0.101141 -0.052,-0.05188 -0.0945,-0.09739 -0.0945,-0.101125 0,-0.0037 0.0748,-0.08163 0.1662,-0.173088 l 0.1662,-0.166297 -0.007,-0.08017 c -0.0164,-0.17814 -0.0236,-0.420775 -0.0154,-0.520313 0.0346,-0.421961 0.19668,-0.784235 0.48364,-1.081356 0.40906,-0.423548 0.98802,-0.609588 1.56679,-0.503462 0.69281,0.12704 1.24443,0.667568 1.38664,1.358771 0.0255,0.123792 0.0496,0.41485 0.0485,0.585183 -0.002,0.257874 -0.0627,0.510543 -0.17939,0.741693 -0.26382,0.522799 -0.74856,0.873679 -1.3213,0.956438 -0.24627,0.03558 -0.55912,0.0075 -0.78853,-0.07089 -0.0276,-0.0094 -0.055,-0.01712 -0.0609,-0.01712 -0.006,0 -0.0547,0.04405 -0.10843,0.09789 -0.0537,0.05384 -0.10228,0.09789 -0.10785,0.09789 -0.006,0 -0.0535,-0.04327 -0.10644,-0.09614 l -0.0963,-0.09614 -0.30379,0.303738 -0.30378,0.303738 -0.19914,0.002 -0.19913,0.002 v 0.196673 0.196672 l -0.0996,0.100605 c -0.0548,0.05533 -0.10458,0.10335 -0.1107,0.106704 -0.008,0.0044 -0.0935,-0.02179 -0.29993,-0.09166 -0.15884,-0.05377 -0.29104,-0.09776 -0.29379,-0.09776 -0.003,0 0.0396,0.133677 0.094,0.297061 l 0.099,0.29706 -0.1063,0.106313 -0.1063,0.106313 -0.19745,2.83e-4 c -0.1086,1.56e-4 -0.29467,-0.0014 -0.41348,-0.0034 z m 3.95272,-3.524704 c 0.22617,-0.03628 0.41098,-0.207908 0.46137,-0.428453 0.008,-0.03368 0.008,-0.04651 5.6e-4,-0.07475 -0.0406,-0.158677 -0.17998,-0.309456 -0.34239,-0.370428 -0.29151,-0.109436 -0.62077,0.04141 -0.72726,0.333172 -0.0359,0.09837 -0.0335,0.135316 0.0154,0.233676 0.10947,0.220498 0.35087,0.345518 0.59236,0.306782 z"
         id="path4594"
         inkscape:connector-curvature="0" />
      <path
         style="fill:#f8e1a3;stroke-width:0.00675102"
         d="m 118.48389,83.640112 -0.20422,-0.0019 v -0.409966 -0.409967 l 0.91139,-0.91148 c 0.50126,-0.501314 0.91138,-0.914544 0.91138,-0.918288 0,-0.0037 -0.0425,-0.04926 -0.0945,-0.101141 -0.052,-0.05188 -0.0945,-0.09739 -0.0945,-0.101125 0,-0.0037 0.0748,-0.08165 0.16625,-0.173135 l 0.16624,-0.166342 -0.007,-0.06324 c -0.0153,-0.13294 -0.0242,-0.442813 -0.0157,-0.544894 0.0289,-0.345264 0.14648,-0.651004 0.3567,-0.927738 0.1039,-0.13677 0.27933,-0.297635 0.4342,-0.398138 0.39773,-0.258109 0.89571,-0.338859 1.36397,-0.221177 0.23385,0.05877 0.47556,0.180284 0.66471,0.334164 0.0773,0.06284 0.19823,0.184921 0.26096,0.263326 0.20777,0.2597 0.33882,0.580585 0.36944,0.904636 0.04,0.422804 0.0305,0.613537 -0.0431,0.866603 -0.13437,0.462385 -0.47059,0.861613 -0.90463,1.074166 -0.22178,0.108609 -0.44699,0.166271 -0.69873,0.178898 -0.1879,0.0094 -0.43238,-0.02537 -0.61383,-0.08736 -0.0276,-0.0094 -0.055,-0.01713 -0.0609,-0.01713 -0.006,0 -0.0547,0.04405 -0.10843,0.09789 -0.0537,0.05384 -0.10228,0.09789 -0.10785,0.09789 -0.006,0 -0.0534,-0.04325 -0.10641,-0.09611 l -0.0963,-0.09611 -0.30566,0.30539 -0.30566,0.30539 h -0.20067 -0.20067 v 0.20032 0.200319 l -0.0962,0.09725 c -0.0529,0.05349 -0.10111,0.09994 -0.10711,0.103233 -0.008,0.0042 -0.0989,-0.02335 -0.3059,-0.09237 -0.16224,-0.0541 -0.29625,-0.09709 -0.2978,-0.09554 -0.002,0.0015 0.0419,0.137132 0.0966,0.301298 l 0.0994,0.298485 -0.10507,0.104474 -0.10508,0.104473 -0.20547,-0.0016 c -0.11301,-8.72e-4 -0.29737,-0.0024 -0.40969,-0.0035 z m 3.97096,-3.515729 c 0.21713,-0.03786 0.38835,-0.192374 0.45194,-0.407842 0.0163,-0.05509 0.0136,-0.09105 -0.0114,-0.15236 -0.0701,-0.172094 -0.21221,-0.29604 -0.39292,-0.342642 -0.0755,-0.01948 -0.2012,-0.01898 -0.27684,0.0011 -0.0603,0.01602 -0.13637,0.05004 -0.18211,0.08151 -0.11497,0.0791 -0.20654,0.215866 -0.23385,0.349259 -0.008,0.03713 -0.007,0.04647 0.004,0.08101 0.0509,0.162076 0.18448,0.303199 0.34367,0.362963 0.0945,0.03547 0.19634,0.0447 0.29784,0.027 z"
         id="path4592"
         inkscape:connector-curvature="0" />
      <path
         style="fill:#f4d262;stroke-width:0.00675102"
         d="m 118.28592,83.62399 c -0.006,-0.01065 -0.006,-0.118012 -0.003,-0.410125 l 0.005,-0.395694 0.91076,-0.911421 c 0.50092,-0.501282 0.91076,-0.914485 0.91076,-0.918229 0,-0.0037 -0.0425,-0.04926 -0.0945,-0.101141 -0.052,-0.05188 -0.0945,-0.09739 -0.0945,-0.101125 0,-0.0037 0.0746,-0.08142 0.16574,-0.17264 l 0.16575,-0.165849 -0.007,-0.05361 c -0.004,-0.02949 -0.0107,-0.147317 -0.0151,-0.261848 -0.006,-0.162467 -0.006,-0.229985 4e-5,-0.307172 0.0497,-0.603252 0.41705,-1.139282 0.9632,-1.405481 0.16627,-0.08104 0.32712,-0.13142 0.5097,-0.15965 0.11031,-0.01705 0.38378,-0.01715 0.49283,-1.73e-4 0.39129,0.06092 0.7197,0.228654 0.98934,0.505299 0.1401,0.143743 0.22861,0.268302 0.31355,0.441245 0.10476,0.213305 0.16002,0.420426 0.17562,0.658224 0.004,0.05384 0.01,0.138902 0.0142,0.189029 0.008,0.09496 0.005,0.237059 -0.008,0.337551 -0.0395,0.315256 -0.17682,0.632572 -0.38122,0.881007 -0.0716,0.08703 -0.21208,0.222676 -0.29611,0.285943 -0.45422,0.341989 -1.03095,0.439315 -1.57937,0.266531 l -0.0796,-0.02509 -0.0994,0.09918 c -0.0546,0.05455 -0.10382,0.09918 -0.1093,0.09918 -0.005,0 -0.0533,-0.04327 -0.10627,-0.09614 l -0.0963,-0.09615 -0.30378,0.303738 -0.30379,0.303738 -0.2042,0.0034 -0.2042,0.0034 -0.003,0.204135 -0.003,0.204135 -0.0911,0.09166 c -0.0501,0.05042 -0.0968,0.09477 -0.10363,0.09857 -0.01,0.0054 -0.0762,-0.01467 -0.30828,-0.09327 -0.16269,-0.0551 -0.29798,-0.098 -0.30065,-0.09534 -0.003,0.0027 0.0397,0.13633 0.0941,0.297045 0.0544,0.160716 0.0989,0.296898 0.0988,0.302628 -8e-5,0.0057 -0.0452,0.0551 -0.10022,0.109705 l -0.10009,0.09928 h -0.40263 -0.40262 z m 4.19871,-3.499924 c 0.16467,-0.03771 0.30289,-0.143875 0.38153,-0.293056 0.0361,-0.06853 0.061,-0.153094 0.0565,-0.192091 -0.009,-0.07449 -0.0761,-0.195609 -0.1506,-0.270143 -0.17977,-0.179765 -0.46476,-0.220076 -0.68486,-0.09687 -0.13959,0.07814 -0.23571,0.203357 -0.27779,0.361883 l -0.0149,0.05611 0.0156,0.04854 c 0.029,0.09056 0.0648,0.149731 0.13496,0.223148 0.13928,0.145719 0.34382,0.207316 0.53957,0.16249 z"
         id="path4590"
         inkscape:connector-curvature="0" />
      <path
         style="fill:#f4b54f;stroke-width:0.00675102"
         d="m 118.28875,83.621254 c -0.002,-0.0057 -0.002,-0.188765 7.7e-4,-0.406749 l 0.005,-0.396334 0.91083,-0.911359 c 0.50095,-0.501247 0.91083,-0.914454 0.91083,-0.918236 0,-0.0038 -0.0397,-0.04633 -0.0882,-0.09454 -0.0485,-0.04822 -0.0913,-0.09336 -0.0952,-0.10031 -0.006,-0.01096 0.0151,-0.03483 0.15815,-0.178902 l 0.16514,-0.166258 -0.009,-0.07764 c -0.006,-0.04963 -0.01,-0.167757 -0.0109,-0.327424 -0.002,-0.273173 0.001,-0.307865 0.0422,-0.479322 0.0563,-0.236215 0.17786,-0.482165 0.33522,-0.678478 0.061,-0.0761 0.17954,-0.193893 0.25896,-0.257341 0.236,-0.188539 0.52243,-0.313931 0.82362,-0.360566 0.0969,-0.01499 0.32142,-0.02053 0.42249,-0.01041 0.28258,0.02829 0.55281,0.124677 0.78595,0.280327 0.40016,0.267159 0.66839,0.68444 0.74615,1.160774 0.0325,0.199149 0.0438,0.596621 0.0209,0.736571 -0.0509,0.311227 -0.16972,0.579409 -0.36481,0.823262 -0.235,0.293724 -0.57169,0.50836 -0.93636,0.59692 -0.16036,0.03894 -0.21495,0.04481 -0.41443,0.04456 -0.15773,-1.99e-4 -0.19405,-0.0023 -0.26965,-0.01538 -0.10717,-0.01858 -0.17406,-0.03509 -0.26953,-0.06652 l -0.0734,-0.02415 -0.0989,0.09871 c -0.0544,0.05429 -0.10336,0.09871 -0.10884,0.09871 -0.005,0 -0.0533,-0.04327 -0.10627,-0.09615 l -0.0963,-0.09614 -0.30545,0.305348 -0.30546,0.305348 -0.20253,0.0018 -0.20253,0.0018 -0.003,0.204142 -0.003,0.204141 -0.0978,0.09797 c -0.0538,0.05388 -0.10264,0.09797 -0.10855,0.09797 -0.006,0 -0.0773,-0.02286 -0.15874,-0.0508 -0.38033,-0.130549 -0.43465,-0.147942 -0.44128,-0.141308 -0.007,0.0067 0.0249,0.10677 0.14358,0.454974 l 0.0517,0.151476 -0.0992,0.1 -0.0992,0.1 h -0.40388 c -0.35775,0 -0.40433,-0.0012 -0.40787,-0.01042 z m 4.12592,-3.479984 c 0.15776,-0.01756 0.29868,-0.09397 0.39567,-0.214532 0.0677,-0.08419 0.12676,-0.226067 0.11883,-0.28557 -0.005,-0.03839 -0.0478,-0.136229 -0.0815,-0.186996 -0.017,-0.02554 -0.0548,-0.06933 -0.0841,-0.0973 -0.11726,-0.11203 -0.26542,-0.167086 -0.42652,-0.158493 -0.25405,0.01355 -0.45886,0.179577 -0.53077,0.43025 l -0.0175,0.06097 0.0174,0.05543 c 0.0652,0.207801 0.26402,0.370416 0.48361,0.39556 0.0279,0.0032 0.0537,0.0062 0.0574,0.0066 0.004,4.51e-4 0.0341,-0.0022 0.0675,-0.0059 z"
         id="path4588"
         inkscape:connector-curvature="0" />
      <path
         style="fill:#373737;fill-opacity:1;stroke-width:0.00675102"
         d="m 118.50076,83.62661 -0.20759,-0.0019 V 83.2248 82.824891 l 0.91476,-0.914744 c 0.50312,-0.50311 0.91477,-0.917826 0.91477,-0.921592 0,-0.0038 -0.044,-0.0508 -0.0978,-0.104519 l -0.0978,-0.09767 0.16606,-0.16654 0.16605,-0.166541 -0.003,-0.03612 c -0.002,-0.01987 -0.009,-0.131817 -0.0154,-0.248778 -0.0101,-0.179183 -0.0108,-0.229129 -0.004,-0.317298 0.0178,-0.233763 0.0702,-0.429465 0.16987,-0.633484 0.0903,-0.184968 0.17966,-0.309308 0.3307,-0.460356 0.1536,-0.153597 0.2781,-0.242414 0.46898,-0.334563 0.30637,-0.1479 0.64691,-0.201478 0.98267,-0.154605 0.73077,0.10202 1.31209,0.657855 1.45157,1.387956 0.0213,0.111683 0.0417,0.381813 0.0411,0.544801 -0.002,0.41793 -0.15761,0.812477 -0.44873,1.134346 -0.3025,0.33447 -0.73359,0.539363 -1.17906,0.560406 -0.24443,0.01155 -0.49942,-0.02645 -0.69731,-0.103906 -0.01,-0.0037 -0.035,0.01792 -0.11656,0.09886 l -0.1044,0.103619 -0.0962,-0.09602 c -0.0529,-0.05281 -0.10069,-0.09602 -0.1062,-0.09602 -0.006,0 -0.14598,0.135949 -0.31217,0.302108 l -0.30215,0.302108 -0.2042,0.0034 -0.2042,0.0034 -0.003,0.204138 -0.003,0.204138 -0.0944,0.09459 c -0.0519,0.05203 -0.0991,0.09459 -0.10472,0.09459 -0.006,0 -0.1421,-0.04396 -0.30318,-0.09768 -0.16108,-0.05373 -0.29547,-0.09608 -0.29865,-0.09412 -0.003,0.002 -0.006,0.0087 -0.006,0.01498 -8e-5,0.0063 0.0445,0.143157 0.099,0.304175 l 0.0991,0.29276 -0.10111,0.100487 -0.1011,0.100487 -0.19196,-0.0016 c -0.10558,-8.73e-4 -0.28538,-0.0024 -0.39956,-0.0035 z m 4.0138,-3.501655 c 0.11007,-0.03233 0.1941,-0.08415 0.27206,-0.167784 0.0787,-0.08446 0.13606,-0.203093 0.14288,-0.295643 0.003,-0.03947 6.2e-4,-0.05093 -0.0205,-0.102668 -0.0724,-0.177482 -0.22524,-0.308723 -0.41276,-0.354335 -0.07,-0.01703 -0.20569,-0.01488 -0.27737,0.0044 -0.11502,0.03093 -0.22484,0.100964 -0.30155,0.192301 -0.071,0.0845 -0.1331,0.231922 -0.12539,0.297501 0.005,0.04068 0.0414,0.129487 0.0736,0.178746 0.0918,0.140208 0.23376,0.233513 0.40165,0.264062 0.0598,0.01087 0.18168,0.0027 0.24734,-0.01658 z"
         id="path4586"
         inkscape:connector-curvature="0" />
      <path
         style="fill:#000000;stroke-width:0.00675102"
         d="m 118.70239,83.626186 c -0.002,-0.003 0.10699,-0.115835 0.24191,-0.25071 0.21414,-0.214081 0.24613,-0.243609 0.25186,-0.23249 0.004,0.007 0.0271,0.07469 0.0523,0.150419 l 0.0457,0.137682 -0.10091,0.100291 -0.1009,0.100291 h -0.19325 c -0.10629,0 -0.19478,-0.0025 -0.19664,-0.0055 z m -0.40922,-0.208808 v -0.207541 l 1.00756,-1.007643 c 0.55416,-0.554203 1.01217,-1.007642 1.0178,-1.007642 0.0132,0 0.20248,0.189371 0.20248,0.202619 0,0.0099 -2.21299,2.227747 -2.22282,2.227747 -0.003,0 -0.005,-0.09339 -0.005,-0.20754 z m 1.25318,-0.455428 -0.1409,-0.04756 0.24551,-0.245577 c 0.13503,-0.135067 0.2478,-0.245577 0.25061,-0.245577 0.003,0 0.005,0.08862 0.005,0.196944 v 0.196944 l -0.0959,0.09672 c -0.0638,0.06431 -0.10052,0.09655 -0.1097,0.09619 -0.008,-2.93e-4 -0.0772,-0.02193 -0.15471,-0.04809 z m 0.37382,-0.5573 c 0,-0.0078 0.79906,-0.805037 0.80685,-0.805037 0.004,0 0.0508,0.04408 0.10461,0.09796 l 0.0978,0.09796 -0.30731,0.307097 -0.30732,0.307096 h -0.19731 c -0.10852,0 -0.19731,-0.0023 -0.19731,-0.0051 z m 1.94091,-0.508631 c -0.10217,-0.005 -0.23402,-0.025 -0.3308,-0.05027 -0.0737,-0.01924 -0.16689,-0.04937 -0.17385,-0.0562 -0.003,-0.0027 0.0292,-0.03878 0.071,-0.08007 l 0.0761,-0.07509 0.0539,0.01281 c 0.0296,0.007 0.0964,0.01941 0.14838,0.02746 0.13409,0.02079 0.35183,0.02095 0.48607,3.52e-4 0.38529,-0.0591 0.70856,-0.220659 0.97531,-0.487417 0.21261,-0.212605 0.36243,-0.468618 0.44207,-0.755427 0.0312,-0.112267 0.0577,-0.272872 0.0577,-0.349265 0,-0.01937 0.003,-0.03697 0.006,-0.03912 0.009,-0.0053 0.0116,0.111331 0.006,0.232631 -0.0221,0.492774 -0.27808,0.968562 -0.68785,1.278643 -0.26004,0.196775 -0.60723,0.325368 -0.91427,0.338631 -0.0447,0.0019 -0.0904,0.0043 -0.10149,0.0052 -0.0111,9.39e-4 -0.0628,-3.59e-4 -0.11477,-0.0029 z m -1.60916,-1.525334 c -0.004,-0.03726 -0.007,-0.08359 -0.007,-0.102953 5.1e-4,-0.03043 0.003,-0.02253 0.0205,0.05831 0.0154,0.0721 0.0181,0.09567 0.0121,0.102953 -0.004,0.0052 -0.0101,0.0094 -0.0128,0.0094 -0.003,0 -0.008,-0.03049 -0.0127,-0.06775 z m 1.52917,-0.733529 c -0.007,-0.0438 -0.005,-0.12686 0.005,-0.17871 0.0429,-0.222583 0.20704,-0.399301 0.42626,-0.458943 0.0763,-0.02075 0.21325,-0.02074 0.28993,3.4e-5 0.1594,0.04317 0.29586,0.15261 0.3705,0.297129 0.0434,0.0841 0.0587,0.143039 0.063,0.243887 0.002,0.04641 0.002,0.08287 2.8e-4,0.08101 -0.002,-0.0019 -0.014,-0.02983 -0.0271,-0.06216 -0.0719,-0.17757 -0.22496,-0.309187 -0.41281,-0.354879 -0.07,-0.01703 -0.20569,-0.01488 -0.27737,0.0044 -0.0711,0.01911 -0.1649,0.06651 -0.21924,0.110748 -0.0886,0.07215 -0.16638,0.188272 -0.19329,0.288628 -0.0148,0.05516 -0.0199,0.06105 -0.0253,0.02886 z"
         id="path4584"
         inkscape:connector-curvature="0" />
    </g>
  </g>
</svg>
