<?xml version="1.0" encoding="UTF-8" standalone="no"?>
<!-- Created with Inkscape (http://www.inkscape.org/) -->

<svg
   xmlns:dc="http://purl.org/dc/elements/1.1/"
   xmlns:cc="http://creativecommons.org/ns#"
   xmlns:rdf="http://www.w3.org/1999/02/22-rdf-syntax-ns#"
   xmlns:svg="http://www.w3.org/2000/svg"
   xmlns="http://www.w3.org/2000/svg"
   xmlns:sodipodi="http://sodipodi.sourceforge.net/DTD/sodipodi-0.dtd"
   xmlns:inkscape="http://www.inkscape.org/namespaces/inkscape"
   width="84.721832mm"
   height="125.95397mm"
   viewBox="0 0 84.721832 125.95397"
   version="1.1"
   id="svg832"
   inkscape:version="0.92.4 (5da689c313, 2019-01-14)"
   sodipodi:docname="fitbit.svg">
  <defs
     id="defs826" />
  <sodipodi:namedview
     id="base"
     pagecolor="#ffffff"
     bordercolor="#666666"
     borderopacity="1.0"
     inkscape:pageopacity="0.0"
     inkscape:pageshadow="2"
     inkscape:zoom="0.98994949"
     inkscape:cx="191.12875"
     inkscape:cy="262.61993"
     inkscape:document-units="mm"
     inkscape:current-layer="layer1"
     showgrid="false"
     inkscape:window-width="2556"
     inkscape:window-height="1400"
     inkscape:window-x="0"
     inkscape:window-y="18"
     inkscape:window-maximized="0"
     fit-margin-top="0"
     fit-margin-left="0"
     fit-margin-right="0"
     fit-margin-bottom="0" />
  <metadata
     id="metadata829">
    <rdf:RDF>
      <cc:Work
         rdf:about="">
        <dc:format>image/svg+xml</dc:format>
        <dc:type
           rdf:resource="http://purl.org/dc/dcmitype/StillImage" />
        <dc:title></dc:title>
      </cc:Work>
    </rdf:RDF>
  </metadata>
  <g
     inkscape:label="Layer 1"
     inkscape:groupmode="layer"
     id="layer1"
     transform="translate(-15.894877,-57.026308)">
    <path
       style="fill:#373737;fill-opacity:1;stroke-width:0.26458332"
       d="m 51.164275,182.98028 c 0,-0.12645 -1.22039,-0.293 -2.71198,-0.37011 -3.09799,-0.16016 -5.11393,-0.76112 -7.5899,-2.26259 -8.59925,-5.21474 -15.56178,-17.90023 -20.28426,-36.95719 -2.64127,-10.65855 -4.6703,-23.89876 -4.68313,-30.55938 -0.007,-3.54746 0.26993,-4.74305 1.54519,-6.67506 0.57402,-0.86964 0.65119,-1.27714 0.65138,-3.43958 6.4e-4,-7.080476 1.59557,-16.273578 3.89126,-22.429112 4.29198,-11.508237 13.14444,-20.897928 21.57665,-22.886082 2.20174,-0.519127 4.92242,-0.496788 17.33591,0.14234 10.76827,0.554421 11.69697,0.65818 14.16883,1.58302 3.55675,1.330752 6.66682,3.900327 10.65107,8.800024 0.84356,1.037389 12.34677,49.4977 13.8622,58.3982 1.579535,9.27703 1.360055,17.71157 -0.66922,25.71702 -2.37527,9.37037 -7.47824,17.64373 -13.84161,22.44116 -3.0663,2.31172 -7.4809,4.36099 -11.14823,5.17501 -9.239131,1.04494 -19.179018,1.9852 -22.75416,3.32233 z m 12.50858,-11.47791 c 3.95421,-3.87376 6.08634,-8.10928 7.23176,-14.36601 0.38992,-2.12986 0.48299,-4.02492 0.48671,-9.90951 0.007,-10.72697 0.47987,-8.27324 -8.26433,-42.86251 -4.28856,-16.964164 -5.92282,-23.00034 -7.04003,-26.002603 -1.37509,-3.695258 -3.51148,-8.127815 -3.91768,-8.128385 -0.29928,-4.24e-4 -3.32122,3.68057 -4.62103,5.628795 -6.79178,10.17992 -8.95873,25.130903 -6.41273,44.244903 1.42061,10.66522 4.102,21.24854 7.89114,31.146 1.297,3.38785 1.55641,5.30195 1.00352,7.40478 l -0.39678,1.50911 1.20439,2.06277 c 1.66964,2.8596 3.77151,5.64989 5.73508,7.61346 1.67918,1.67918 4.23892,3.57743 4.82406,3.57743 0.17482,0 1.19898,-0.86321 2.27592,-1.91823 z m -26.99452,-50.51205 c 0.66476,-0.34518 0.62676,-2.17474 -0.0594,-2.86091 -0.7792,-0.7792 -1.41716,-0.85212 -5.23574,-0.59844 -2.79123,0.18543 -3.59452,0.32861 -4.02399,0.71728 -0.55938,0.50623 -0.73025,1.84017 -0.272,2.12338 0.14636,0.0905 0.26931,-0.10945 0.27517,-0.4474 0.01,-0.56652 0.0417,-0.55322 0.439,0.18282 0.77056,1.42772 0.9479,1.47504 4.84208,1.29179 1.96453,-0.0924 3.78023,-0.27628 4.03489,-0.40852 z m -0.98016,-11.71916 c 0.35719,-0.35719 0.64943,-0.83935 0.64943,-1.07147 0,-0.64691 -0.72291,-1.89947 -1.20248,-2.08349 -0.23556,-0.0904 -1.8923,-0.16436 -3.68164,-0.16436 -4.33574,0 -5.45905,0.45665 -5.42269,2.20445 0.01,0.4816 0.0663,0.44627 0.35095,-0.22007 l 0.33902,-0.79375 0.16541,1.01579 c 0.28121,1.72696 0.3709,1.76233 4.46877,1.76233 3.55842,0 3.7059,-0.0221 4.33323,-0.64943 z m -2.86033,-11.937343 c 0.62457,-0.128111 1.03958,-1.125952 0.76543,-1.84037 -0.13064,-0.340423 -0.69717,-0.393533 -3.53427,-0.331322 l -3.37869,0.07409 -0.49848,1.020802 c -0.3836,0.785545 -0.42285,1.067546 -0.17031,1.223626 0.32561,0.201235 5.68196,0.08585 6.81632,-0.146828 z"
       id="path2009"
       inkscape:connector-curvature="0"
       sodipodi:nodetypes="ccssccccssscssscccccssccsscccsscccscccccccsscsccccssccsccccc" />
    <path
       style="color:#000000;clip-rule:nonzero;display:inline;overflow:visible;visibility:visible;opacity:1;isolation:auto;mix-blend-mode:normal;color-interpolation:sRGB;color-interpolation-filters:linearRGB;solid-color:#000000;solid-opacity:1;fill:none;fill-opacity:1;fill-rule:evenodd;stroke:#212121;stroke-width:0.2;stroke-linecap:round;stroke-linejoin:round;stroke-miterlimit:10;stroke-dasharray:none;stroke-dashoffset:0;stroke-opacity:1;color-rendering:auto;image-rendering:auto;shape-rendering:auto;text-rendering:auto;enable-background:accumulate"
       d="m 51.499254,57.12686 c 0,0 4.465916,1.85174 6.37835,3.732513 1.912434,1.880773 3.528976,4.663326 4.960937,7.323288 1.431961,2.659962 0.726813,1.37251 3.023809,9.780135 2.296996,8.407625 7.715534,31.908634 9.732888,40.915924 2.017354,9.00729 1.684018,11.31641 1.984375,14.93006 0.300357,3.61365 -0.283484,10.53609 -0.283484,10.53609"
       id="path2052"
       inkscape:connector-curvature="0"
       sodipodi:nodetypes="czzzzzc" />
    <path
       style="color:#000000;clip-rule:nonzero;display:inline;overflow:visible;visibility:visible;opacity:1;isolation:auto;mix-blend-mode:normal;color-interpolation:sRGB;color-interpolation-filters:linearRGB;solid-color:#000000;solid-opacity:1;fill:#000000;fill-opacity:1;fill-rule:evenodd;stroke:none;stroke-width:1;stroke-linecap:round;stroke-linejoin:round;stroke-miterlimit:10;stroke-dasharray:none;stroke-dashoffset:0;stroke-opacity:1;color-rendering:auto;image-rendering:auto;shape-rendering:auto;text-rendering:auto;enable-background:accumulate"
       d="m 55.37351,76.16741 7.465031,-7.984749 22.962052,-0.188986 1.937129,7.1343 -22.678817,-0.0326 -7.75571,7.188743 z"
       id="path2013"
       inkscape:connector-curvature="0"
       sodipodi:nodetypes="ccccccc" />
    <path
       style="fill:#212121;fill-opacity:1;stroke-width:0.26458332"
       d="m 54.739417,181.64315 c 5.7226,-2.05794 10.51771,-5.98937 14.37844,-11.78864 4.58233,-6.88318 7.09097,-14.8644 8.15187,-25.935 0.0488,-0.50932 0.1078,0.079 0.13108,1.30734 0.0384,2.0252 0.0786,2.18551 0.43081,1.71979 0.21365,-0.28247 0.39224,-0.37864 0.39687,-0.21371 0.005,0.16492 0.24671,0.36218 0.53795,0.43834 0.29124,0.0762 0.48247,0.0603 0.42494,-0.0353 -0.0575,-0.0956 0.83528,-0.2094 1.98401,-0.25297 1.57591,-0.0598 2.089604,0.005 2.092654,0.26459 0.002,0.21042 0.0795,0.24115 0.19844,0.0792 0.29804,-0.40567 1.31623,-0.51613 3.50168,-0.37989 0.21828,0.0136 0.99125,-0.0303 1.7177,-0.0975 0.72646,-0.0672 1.58966,-0.02 1.91823,0.10488 0.33585,0.12769 0.5974,0.12655 0.5974,-0.003 0,-0.12635 0.18478,-0.30063 0.41062,-0.3873 0.23546,-0.0904 0.34166,-0.046 0.24897,0.10399 -0.20102,0.32525 0.0358,0.32871 1.12453,0.0165 0.47002,-0.1348 0.91,-0.15541 0.97774,-0.0458 0.0677,0.1096 0.75396,0.11682 1.52492,0.016 0.77097,-0.10078 1.66172,-0.0861 1.97944,0.0326 0.38147,0.14249 0.61687,0.10796 0.69304,-0.10169 0.0876,-0.24111 0.25949,-0.23205 0.71455,0.0376 0.5013,0.2971 0.63596,0.2971 0.82427,0 0.749879,-1.18316 -0.48182,5.03715 -1.78884,9.03396 -4.19011,12.81312 -13.29992,22.0246 -23.662044,23.92612 -2.00982,0.36882 -16.69202,2.32623 -19.95657,2.66059 l -1.32292,0.1355 1.77022,-0.6366 z m 0.27667,-5.49972 c 0.0521,-0.15615 0.48867,-0.32705 0.97025,-0.37977 0.4816,-0.0527 1.57733,-0.37929 2.43497,-0.7257 0.85764,-0.34642 1.55935,-0.58587 1.55935,-0.53212 0,0.0538 -0.7069,0.45456 -1.57089,0.8907 -1.6447,0.83025 -3.56213,1.25224 -3.39368,0.74689 z m -20.83231,-12.62757 c -1.2931,-0.3148 -2.43405,-1.01449 -3.0385,-1.86336 -0.40962,-0.57526 -0.45514,-0.75302 -0.16423,-0.64139 0.27789,0.10663 0.45642,-0.0606 0.57682,-0.54032 0.19428,-0.77404 1.31102,-1.47003 2.35873,-1.47003 0.37683,0 1.1754,0.25011 1.7746,0.55581 2.44746,1.24859 5.53693,1.63879 9.47279,1.1964 2.46546,-0.27711 4.7625,-1.47388 4.7625,-2.48128 0,-0.2296 0.0666,-0.35088 0.14795,-0.2695 0.29392,0.29391 -0.70648,3.05059 -1.31428,3.62158 -0.87013,0.81745 -2.66412,1.30046 -6.50496,1.75139 -3.47711,0.40823 -6.73894,0.46509 -8.07142,0.1407 z m 1.53753,-9.38576 -0.74093,-0.63732 0.92462,-0.14595 c 0.50854,-0.0803 1.87712,-0.21937 3.04128,-0.30911 3.12407,-0.24081 3.23103,-0.28211 3.09694,-1.1958 -0.0982,-0.66912 -0.20973,-0.76065 -0.81165,-0.66616 -0.38378,0.0602 -1.88841,0.19055 -3.34362,0.28956 -1.45521,0.099 -2.73513,0.23467 -2.84427,0.30147 -0.39973,0.24465 -0.1844,-0.36963 0.27546,-0.7858 0.34789,-0.31484 1.48143,-0.51328 4.26351,-0.74638 3.54273,-0.29682 3.84932,-0.28536 4.70593,0.17595 0.50396,0.27141 1.0857,0.82104 1.29273,1.2214 0.43363,0.83855 0.49852,2.23503 0.11488,2.47214 -0.14689,0.0908 -0.19607,-0.009 -0.11219,-0.22759 0.0822,-0.21409 -0.0444,-0.68498 -0.28123,-1.04643 l -0.43061,-0.65718 -0.6385,0.63849 c -0.62571,0.62572 -0.64335,1.39321 -0.0335,1.45999 1.02791,0.11256 -2.55258,0.46011 -4.90834,0.47644 -2.62282,0.0182 -2.88364,-0.0269 -3.57046,-0.61772 z m 1.41434,-9.99275 c -0.43543,-0.4748 -0.7549,-0.52208 -2.97995,-0.44097 -2.74858,0.10019 -2.85529,0.0341 -2.80495,-1.73613 0.0424,-1.4918 0.64774,-1.75327 4.74628,-2.0501 4.18498,-0.3031 4.99663,-0.11202 5.75519,1.35487 0.49901,0.96497 0.52052,2.4908 0.0407,2.88899 -0.29176,0.24214 -0.33656,0.17338 -0.23458,-0.36006 0.0693,-0.36265 0.0499,-0.85778 -0.0432,-1.10028 -0.14921,-0.38886 -0.24857,-0.36636 -0.84137,0.19055 -0.67085,0.63023 -0.67111,0.63232 -0.13463,1.06674 0.52894,0.42831 0.52447,0.43789 -0.28004,0.59879 -1.49871,0.29974 -2.71289,0.1444 -3.22352,-0.4124 z m -3.54718,-10.45683 c 1.33539,-0.11413 1.50956,-0.31834 0.8414,-0.9865 -0.59935,-0.59935 -1.38628,-0.7358 -3.67066,-0.63647 -1.91773,0.0834 -2.03165,0.0565 -2.17385,-0.51244 -0.219912,-0.87992 0.3803,-2.09236 1.18935,-2.40254 0.3877,-0.14863 2.20742,-0.34854 4.04382,-0.44422 3.90339,-0.20338 4.76797,0.06 5.4346,1.65546 0.42709,1.02217 0.30367,2.48041 -0.2477,2.92657 -0.17805,0.14407 -1.75248,0.3172 -3.49873,0.38474 -1.74625,0.0675 -2.60945,0.0745 -1.91823,0.0154 z m 5.16215,-1.42305 0.0689,-0.90567 -0.39027,0.66146 c -0.48206,0.81702 -0.51851,1.40296 -0.0783,1.25845 0.1819,-0.0597 0.36174,-0.51612 0.39965,-1.01424 z m -10.417272,-9.771 c -0.58399,-0.22857 -1.69019,-1.4762 -1.69019,-1.90627 0,-0.13706 0.29154,0.0973 0.64787,0.52075 0.80151,0.95253 0.78645,0.94999 5.305252,0.89392 3.60572,-0.0447 3.71999,-0.0638 4.29948,-0.71708 0.67485,-0.76078 0.80327,-0.52708 0.19084,0.34729 -0.22247,0.31761 -0.78801,0.63547 -1.25677,0.70635 -1.71448,0.25926 -6.9534,0.3676 -7.496482,0.15504 z m 9.178612,-2.53379 c 0.0127,-0.30823 0.0754,-0.37092 0.15986,-0.15986 0.0764,0.191 0.067,0.4192 -0.0209,0.50712 -0.0879,0.0879 -0.15046,-0.0683 -0.13897,-0.34726 z m -11.112502,-0.26459 c 0.0127,-0.30822 0.0754,-0.37092 0.15986,-0.15985 0.0764,0.19099 0.067,0.4192 -0.0209,0.50712 -0.0879,0.0879 -0.15045,-0.0684 -0.13897,-0.34727 z m 0.2437,-0.84312 c 0,-0.12827 0.30689,-0.52186 0.68199,-0.87465 0.65034,-0.61167 0.86843,-0.64532 4.699742,-0.72529 l 4.01775,-0.0839 0.65807,0.74532 0.65807,0.74531 -0.70482,-0.62003 c -0.68421,-0.6019 -0.8223,-0.61738 -4.71963,-0.52917 l -4.014792,0.0909 -0.63819,0.74236 c -0.35101,0.4083 -0.63819,0.63741 -0.63819,0.50914 z m -5.1519,-6.21243 c -0.5426,-1.65849 -0.82081,-12.60018 -0.42888,-16.867193 1.06123,-11.553722 4.82705,-20.443815 11.489712,-27.124105 3.10102,-3.109229 5.5101,-4.66499 8.18013,-5.282646 2.0046,-0.463723 4.24475,-0.256361 5.77407,0.534484 1.25211,0.647486 3.31501,2.660426 4.66723,4.554169 l 1.18086,1.653778 -1.6373,1.785805 c -3.90525,4.259464 -7.00829,10.246428 -8.73634,16.855758 -0.42015,1.606945 -0.76876,2.720383 -0.7747,2.47431 -0.0179,-0.74013 -0.45244,-0.782397 -1.24517,-0.121108 -0.88683,0.739788 -3.24978,2.023721 -3.72446,2.023721 -0.18306,0 -0.33283,0.12609 -0.33283,0.280199 0,0.15411 -0.1089,0.212897 -0.24199,0.130644 -0.13309,-0.08226 -0.28653,-0.01593 -0.34097,0.147394 -0.0614,0.184065 -1.20147,0.347821 -2.99916,0.43077 -1.5951,0.0736 -2.94978,0.178843 -3.01042,0.233866 -0.0606,0.05503 1.34751,0.100044 3.12921,0.100044 3.22766,0 3.24226,0.0028 4.01285,0.773398 0.80474,0.804746 1.15283,2.252134 0.3892,1.618382 -0.31803,-0.263945 -0.45644,-0.145904 -0.80384,0.685523 -0.23081,0.552405 -0.61216,1.217088 -0.84744,1.477076 -0.34735,0.383811 -0.35789,0.479351 -0.0561,0.508051 0.20446,0.0195 -0.22357,0.12096 -0.95118,0.22557 -1.90657,0.27415 -6.412782,0.3307 -6.564112,0.0824 -0.0707,-0.11605 1.400092,-0.21398 3.268482,-0.21762 1.86839,-0.004 3.48622,-0.0958 3.59519,-0.20474 0.10896,-0.108963 -0.007,-0.40364 -0.25847,-0.654838 -0.37297,-0.373076 -1.1454,-0.484566 -4.21759,-0.608762 l -3.761002,-0.152043 3.307302,-0.07773 c 1.81901,-0.04275 3.40891,-0.05952 3.53312,-0.03726 1.13215,0.202859 1.76124,-0.967891 1.04715,-1.948752 -0.46801,-0.642834 -0.5608,-0.65845 -3.96136,-0.66657 l -3.482132,-0.0083 -0.55276,1.141868 c -0.30403,0.628028 -0.55277,1.289899 -0.55277,1.470824 0,0.180924 -0.0893,0.274894 -0.19844,0.208819 -0.21636,-0.130987 -0.76624,0.369451 -0.74239,0.67564 0.008,0.104424 -0.18379,0.421783 -0.4265,0.705244 -0.24271,0.28346 -0.38276,0.57391 -0.31122,0.64545 0.0715,0.0715 -0.0597,0.49707 -0.29168,0.94563 -0.23196,0.44856 -0.41933,0.87634 -0.41638,0.95063 0.003,0.0743 -0.004,0.16483 -0.0149,0.20121 -0.12921,0.42219 -0.51398,2.44536 -0.66672,3.50573 -0.26742,1.85643 -0.35125,2.86937 -0.37817,4.56945 -0.0144,0.91248 -0.12069,1.60069 -0.2361,1.52937 -0.1154,-0.0713 -0.15361,0.16437 -0.0849,0.52377 0.12752,0.66708 -0.13011,0.92198 -0.32617,0.32272 z m 4.86696,-2.29476 c -1.0015,-1.0015 -1.07127,-2.55495 -0.16222,-3.61178 0.75252,-0.87487 2.11679,-1.13343 6.095692,-1.1553 l 2.87041,-0.0158 0.76761,0.82174 c 0.42219,0.45195 0.7514,1.07702 0.73158,1.38906 -0.0355,0.55928 -0.0376,0.55901 -0.14951,-0.0189 -0.0624,-0.32246 -0.49118,-0.9041 -0.95283,-1.29255 -0.81834,-0.68859 -0.90236,-0.7021 -3.35622,-0.53957 -1.38427,0.0917 -3.01374,0.16732 -3.62104,0.16807 -2.516842,0.003 -3.627862,2.39206 -1.874292,4.03013 l 0.858,0.80149 3.697532,-0.18769 c 2.03365,-0.10323 3.91943,-0.30644 4.19063,-0.45158 0.27119,-0.14514 0.65732,-0.64147 0.85807,-1.10296 0.20074,-0.46148 0.36964,-0.68432 0.37534,-0.49519 0.0201,0.66777 -0.75232,1.80599 -1.43746,2.11816 -0.43255,0.19708 -2.09135,0.31609 -4.40582,0.31609 h -3.712072 z"
       id="path2011"
       inkscape:connector-curvature="0"
       sodipodi:nodetypes="ccccccccccccccsccccccscccccccccccsccccccsccsccsccccccccccccccccccccccccccccccccccccscccccccccccccccsccccccccccccccccccccccsccccccssscccscccssccscsccccccccccscscccccscccscccccccccccccccccccccsccccscc" />
    <circle
       style="color:#000000;clip-rule:nonzero;display:inline;overflow:visible;visibility:visible;opacity:1;isolation:auto;mix-blend-mode:normal;color-interpolation:sRGB;color-interpolation-filters:linearRGB;solid-color:#000000;solid-opacity:1;fill:#ffffff;fill-opacity:1;fill-rule:evenodd;stroke:none;stroke-width:1.12;stroke-linecap:round;stroke-linejoin:round;stroke-miterlimit:10;stroke-dasharray:none;stroke-dashoffset:0;stroke-opacity:1;color-rendering:auto;image-rendering:auto;shape-rendering:auto;text-rendering:auto;enable-background:accumulate"
       id="path2015"
       cx="68.744423"
       cy="71.159218"
       r="1.3229166" />
    <circle
       style="color:#000000;clip-rule:nonzero;display:inline;overflow:visible;visibility:visible;opacity:1;isolation:auto;mix-blend-mode:normal;color-interpolation:sRGB;color-interpolation-filters:linearRGB;solid-color:#000000;solid-opacity:1;fill:#ffffff;fill-opacity:1;fill-rule:evenodd;stroke:none;stroke-width:1.12;stroke-linecap:round;stroke-linejoin:round;stroke-miterlimit:10;stroke-dasharray:none;stroke-dashoffset:0;stroke-opacity:1;color-rendering:auto;image-rendering:auto;shape-rendering:auto;text-rendering:auto;enable-background:accumulate"
       id="path2015-3"
       cx="72.32338"
       cy="71.159218"
       r="1.3229166" />
    <circle
       style="color:#000000;clip-rule:nonzero;display:inline;overflow:visible;visibility:visible;opacity:1;isolation:auto;mix-blend-mode:normal;color-interpolation:sRGB;color-interpolation-filters:linearRGB;solid-color:#000000;solid-opacity:1;fill:#ffffff;fill-opacity:1;fill-rule:evenodd;stroke:none;stroke-width:1.12;stroke-linecap:round;stroke-linejoin:round;stroke-miterlimit:10;stroke-dasharray:none;stroke-dashoffset:0;stroke-opacity:1;color-rendering:auto;image-rendering:auto;shape-rendering:auto;text-rendering:auto;enable-background:accumulate"
       id="path2015-6"
       cx="75.902344"
       cy="71.159218"
       r="1.3229166" />
    <circle
       style="color:#000000;clip-rule:nonzero;display:inline;overflow:visible;visibility:visible;opacity:1;isolation:auto;mix-blend-mode:normal;color-interpolation:sRGB;color-interpolation-filters:linearRGB;solid-color:#000000;solid-opacity:1;fill:#ffffff;fill-opacity:1;fill-rule:evenodd;stroke:none;stroke-width:1.12;stroke-linecap:round;stroke-linejoin:round;stroke-miterlimit:10;stroke-dasharray:none;stroke-dashoffset:0;stroke-opacity:1;color-rendering:auto;image-rendering:auto;shape-rendering:auto;text-rendering:auto;enable-background:accumulate"
       id="path2015-7"
       cx="79.481308"
       cy="71.159218"
       r="1.3229166" />
    <circle
       style="color:#000000;clip-rule:nonzero;display:inline;overflow:visible;visibility:visible;opacity:1;isolation:auto;mix-blend-mode:normal;color-interpolation:sRGB;color-interpolation-filters:linearRGB;solid-color:#000000;solid-opacity:1;fill:#ffffff;fill-opacity:1;fill-rule:evenodd;stroke:none;stroke-width:1.12;stroke-linecap:round;stroke-linejoin:round;stroke-miterlimit:10;stroke-dasharray:none;stroke-dashoffset:0;stroke-opacity:1;color-rendering:auto;image-rendering:auto;shape-rendering:auto;text-rendering:auto;enable-background:accumulate"
       id="path2015-5"
       cx="83.060265"
       cy="71.159218"
       r="1.3229166" />
  </g>
</svg>
