<?xml version="1.0" encoding="UTF-8" standalone="no"?>
<!-- Created with Inkscape (http://www.inkscape.org/) -->

<svg
   xmlns:dc="http://purl.org/dc/elements/1.1/"
   xmlns:cc="http://creativecommons.org/ns#"
   xmlns:rdf="http://www.w3.org/1999/02/22-rdf-syntax-ns#"
   xmlns:svg="http://www.w3.org/2000/svg"
   xmlns="http://www.w3.org/2000/svg"
   xmlns:sodipodi="http://sodipodi.sourceforge.net/DTD/sodipodi-0.dtd"
   xmlns:inkscape="http://www.inkscape.org/namespaces/inkscape"
   width="173.48506mm"
   height="174.89114mm"
   viewBox="0 0 173.48506 174.89114"
   version="1.1"
   id="svg1003"
   inkscape:version="0.92.4 (5da689c313, 2019-01-14)"
   sodipodi:docname="headset.svg">
  <defs
     id="defs997" />
  <sodipodi:namedview
     id="base"
     pagecolor="#ffffff"
     bordercolor="#666666"
     borderopacity="1.0"
     inkscape:pageopacity="0.0"
     inkscape:pageshadow="2"
     inkscape:zoom="0.7"
     inkscape:cx="494.13508"
     inkscape:cy="213.17345"
     inkscape:document-units="mm"
     inkscape:current-layer="layer1"
     showgrid="false"
     inkscape:window-width="1276"
     inkscape:window-height="1400"
     inkscape:window-x="1280"
     inkscape:window-y="18"
     inkscape:window-maximized="0"
     fit-margin-top="0"
     fit-margin-left="0"
     fit-margin-right="0"
     fit-margin-bottom="0" />
  <metadata
     id="metadata1000">
    <rdf:RDF>
      <cc:Work
         rdf:about="">
        <dc:format>image/svg+xml</dc:format>
        <dc:type
           rdf:resource="http://purl.org/dc/dcmitype/StillImage" />
        <dc:title></dc:title>
      </cc:Work>
    </rdf:RDF>
  </metadata>
  <g
     inkscape:label="Layer 1"
     inkscape:groupmode="layer"
     id="layer1"
     transform="translate(32.629177,1.7279989)">
    <path
       style="fill:#373737;fill-opacity:1;stroke-width:0.26458332"
       d="m 126.86771,165.18909 c -7.90106,-0.86137 -14.08507,-3.5862 -31.353122,-13.81496 -20.57397,-11.54968 -7.483659,-3.95358 -27.547914,-11.42574 l -2.283608,-0.84901 -1.176578,0.50404 c -2.763848,1.18402 -9.149893,1.65452 -13.876579,1.02239 -4.083521,-0.54613 -6.62242,-0.82678 -7.47631,-0.82644 -0.937937,2.6e-4 -4.783098,-0.9547 -8.125304,-2.01817 -2.626151,-0.83563 -5.242626,-2.56349 -7.327905,-4.83921 -1.404128,-1.53236 -1.563227,-1.63969 -1.395735,-0.94163 0.103973,0.43334 0.258905,0.90695 0.344294,1.05247 0.08539,0.14552 0.122502,0.46393 0.08247,0.70758 -0.08778,0.53431 3.278417,19.92689 3.529454,20.33307 0.07006,0.11336 0.145243,1.14595 0.167071,2.29464 0.07001,3.68372 -1.361008,5.96435 -5.198036,8.2842 -6.569016,3.97159 -15.121958,7.62373 -19.2174359,8.20593 -1.0720785,0.1524 -5.24355487,0.28036 -9.2699523,0.28435 -8.2903558,0.008 -8.5502428,-0.0453 -10.3336378,-2.12882 -9.017179,-22.33568 -16.070972,-55.01488 -18.461657,-80.578868 -0.154913,-1.74625 -0.344498,-3.856638 -0.421301,-4.689748 -0.219202,-2.377715 -0.202068,-12.744547 0.02614,-15.81546 0.113548,-1.527969 0.229576,-3.135313 0.257841,-3.571875 0.06303,-0.97354 0.403593,-3.730707 0.571913,-4.630209 0.06808,-0.363802 0.187613,-1.137708 0.265639,-1.719791 0.07802,-0.582084 0.496395,-2.546615 0.929717,-4.365625 3.177939,-13.340483 9.843548,-26.50014 17.949608,-35.437234 C -9.4757035,16.92015 -3.1232428,11.310123 -0.3151961,9.4878956 2.4491732,7.69401 7.307246,5.0690232 9.6194927,4.1198358 17.283903,0.97355098 23.736418,-0.75322833 30.626168,-1.5018378 c 4.981337,-0.5412475 15.953984,-0.048379 18.151658,0.81533738 0.291042,0.11438202 1.124479,0.35257052 1.852083,0.52930955 3.905084,0.94855506 8.816608,3.02920397 12.185124,5.16192827 2.14716,1.3594423 5.667499,4.362786 6.894396,5.8818856 0.555979,0.688393 1.082297,1.311154 1.169596,1.383914 0.898893,0.749194 3.518085,5.694593 4.554196,8.598958 2.093748,5.869065 2.504085,13.585905 1.167731,21.960417 -0.796198,4.989528 -0.979898,6.072074 -1.908165,11.244792 -0.857218,4.776803 -1.202931,6.16024 -1.628595,6.517145 -0.298725,0.25047 -0.295955,0.322913 0.01693,0.442979 0.315675,0.121134 0.280901,0.673229 -0.222779,3.537021 -0.547248,3.111524 -0.612063,4.539467 -0.780071,17.185981 -0.204716,15.409892 -0.265382,14.786642 1.642338,16.873096 0.54533,0.596421 1.24697,1.439214 1.559203,1.872884 l 0.567695,0.78847 -0.138084,-0.72233 c -0.131238,-0.686537 -0.08739,-0.722102 0.88495,-0.717736 4.326517,0.01942 9.397722,2.703476 11.988913,6.345406 3.033067,4.26298 4.238985,11.0822 2.897738,16.38611 -0.571717,2.26084 -1.196226,3.98681 -1.442553,3.98681 17.325028,12.63667 7.499176,0.69268 27.701118,8.26949 3.82368,1.48666 10.18439,4.66684 12.7,6.34963 6.40995,4.28791 10.32105,10.09873 10.4117,15.46897 0.0288,1.70951 -0.0642,2.1509 -0.66945,3.175 -1.46802,2.48399 -3.86176,4.12237 -7.13052,4.88045 -1.72464,0.39997 -4.74433,0.63194 -6.18361,0.47503 z M 23.726388,102.62575 c 4.059274,-8.875805 14.657757,-13.511064 21.33917,-12.076412 1.605531,0.413247 2.157177,0.466722 2.312326,0.22415 0.112067,-0.175215 0.151725,-0.46086 0.08813,-0.634768 -0.07509,-0.205345 0.273704,-0.348207 0.994969,-0.407514 l 1.110596,-0.09132 -1.410271,-0.224695 c -1.116971,-0.177967 -1.383576,-0.313319 -1.281907,-0.650817 0.0706,-0.234368 1.794005,-5.32865 3.829783,-11.320626 3.307268,-9.734389 3.776276,-11.339571 4.404387,-15.074056 0.386633,-2.298753 0.786542,-4.242319 0.888693,-4.319037 0.102147,-0.07672 0.216847,-0.675267 0.254883,-1.330111 0.07425,-1.278144 1.181468,-8.212934 2.464626,-15.436482 1.420397,-7.996142 0.94756,-12.434644 -1.63844,-15.379936 -5.427404,-6.181468 -16.141169,-2.454812 -23.558479,8.194543 -0.956638,1.373484 -3.929317,6.525927 -3.929317,6.810547 0,0.08925 -0.431083,1.093695 -0.957961,2.23211 -2.522524,5.45035 -5.152588,15.547009 -6.308349,24.217354 -0.79811,5.987315 -0.992087,10.422761 -0.866468,19.812635 0.120118,8.978734 0.635127,17.921845 1.008039,17.504585 0.09736,-0.10893 0.662373,-1.0315 1.255593,-2.05014 z M 69.167827,67.438154 c 0.09534,-0.508227 0.102103,-1.109723 0.01503,-1.336659 -0.101989,-0.265782 -0.05161,-0.346649 0.141581,-0.22725 0.205029,0.126711 0.258017,-0.03383 0.167484,-0.507418 -0.07284,-0.381027 -0.03057,-0.629822 0.09393,-0.552876 0.1245,0.07694 0.236283,-0.01596 0.248409,-0.206444 0.01212,-0.19049 0.06513,-0.58447 0.117785,-0.875512 0.05266,-0.291041 0.151963,-0.945885 0.220686,-1.455208 0.06872,-0.509323 0.203713,-1.125696 0.299977,-1.369719 0.144428,-0.366114 -0.04833,-0.474263 -1.102633,-0.618643 -0.702709,-0.09623 -1.651246,-0.270243 -2.107861,-0.386694 l -0.830204,-0.211728 -0.579753,3.707456 c -0.318862,2.039099 -0.637164,3.857069 -0.707337,4.039936 -0.128087,0.333788 1.599989,0.826484 3.13395,0.89353 0.616807,0.02696 0.73955,-0.09631 0.888968,-0.892771 z m -8.351459,-0.570529 c 0,-0.09441 0.301545,-1.896305 0.670099,-4.004204 0.368557,-2.107901 0.63137,-3.871275 0.584031,-3.918614 -0.04734,-0.04734 -1.037344,-0.165404 -2.20001,-0.262366 l -2.113942,-0.176297 -0.622318,3.878231 c -0.342279,2.133025 -0.576551,3.918696 -0.52061,3.968152 0.109251,0.09659 2.973784,0.596619 3.739729,0.652798 0.254661,0.01868 0.463021,-0.04329 0.463021,-0.1377 z"
       id="path1578"
       inkscape:connector-curvature="0"
       sodipodi:nodetypes="ccccscccscccccscccccscccssscsccsscsssccsssccccssccccccccccccscccssccsssscsscccccccccccccscsscccscscccccs" />
    <path
       style="fill:#808080;stroke-width:0.26458332"
       d="M 126.29122,157.62269 C 82.774271,136.80447 90.148707,138.37016 42.009014,119.95595 45.698479,108.15693 26.846768,105.47313 26.85774,105.23651 c 1.869522,-2.61696 3.230946,-3.0546 3.679455,-3.27221 4.972541,0.70195 10.04443,3.8858 14.227267,7.18125 8.404147,6.47492 17.389599,12.08883 26.958434,16.61194 4.155584,2.01978 10.958541,4.87987 13.820716,6.12301 1.613376,0.98727 4.645308,1.82686 7.287342,3.42126 17.401246,6.80389 14.436566,5.17008 26.714976,10.65896 4.49703,2.28445 13.05976,4.3373 12.51895,10.58548 -0.91721,2.48788 -3.88111,1.86387 -5.77366,1.07649 z"
       id="path1894"
       inkscape:connector-curvature="0"
       sodipodi:nodetypes="ccccccccccc" />
    <path
       style="fill:#000000;stroke-width:0.26458332"
       d="m -21.636935,69.861918 c 0.09234,-0.266563 0.167886,-0.653516 0.167886,-0.859896 0,-0.206378 0.119063,-0.375235 0.264583,-0.375235 0.392859,0 0.305602,0.589272 -0.176302,1.190625 -0.37266,0.465034 -0.403707,0.470429 -0.256167,0.04451 z"
       id="path1832"
       inkscape:connector-curvature="0" />
    <ellipse
       style="color:#000000;clip-rule:nonzero;display:inline;overflow:visible;visibility:visible;opacity:1;isolation:auto;mix-blend-mode:normal;color-interpolation:sRGB;color-interpolation-filters:linearRGB;solid-color:#000000;solid-opacity:1;fill:#292929;fill-opacity:1;fill-rule:evenodd;stroke:#ffffff;stroke-width:1;stroke-miterlimit:4;stroke-dasharray:none;stroke-opacity:1;color-rendering:auto;image-rendering:auto;shape-rendering:auto;text-rendering:auto;enable-background:accumulate"
       id="path1904"
       cx="91.102699"
       cy="76.83493"
       rx="10.18654"
       ry="5.6473069"
       transform="rotate(34.054751)" />
    <path
       style="color:#000000;clip-rule:nonzero;display:inline;overflow:visible;visibility:visible;opacity:1;isolation:auto;mix-blend-mode:normal;color-interpolation:sRGB;color-interpolation-filters:linearRGB;solid-color:#000000;solid-opacity:1;fill:none;fill-opacity:1;fill-rule:evenodd;stroke:#d40010;stroke-width:1;stroke-miterlimit:4;stroke-dasharray:none;stroke-opacity:1;color-rendering:auto;image-rendering:auto;shape-rendering:auto;text-rendering:auto;enable-background:accumulate"
       d="m -5.4371028,14.606816 c 0,0 -8.7220022,12.86034 -11.4008772,25.814437 -2.678875,12.954097 -3.322624,35.691828 -2.405426,51.315749 0.917198,15.623918 4.235482,28.995248 6.949008,41.961318 2.7135255,12.96607 9.0871636,35.81411 9.0871636,35.81411"
       id="path1906"
       inkscape:connector-curvature="0"
       sodipodi:nodetypes="czzzc" />
    <path
       style="color:#000000;clip-rule:nonzero;display:inline;overflow:visible;visibility:visible;opacity:1;isolation:auto;mix-blend-mode:normal;color-interpolation:sRGB;color-interpolation-filters:linearRGB;solid-color:#000000;solid-opacity:1;fill:none;fill-opacity:1;fill-rule:evenodd;stroke:#d40010;stroke-width:1;stroke-miterlimit:4;stroke-dasharray:none;stroke-opacity:1;color-rendering:auto;image-rendering:auto;shape-rendering:auto;text-rendering:auto;enable-background:accumulate"
       d="M 57.756546,58.506142 73.23185,59.931929"
       id="path1908"
       inkscape:connector-curvature="0" />
    <path
       style="color:#000000;clip-rule:nonzero;display:inline;overflow:visible;visibility:visible;opacity:1;isolation:auto;mix-blend-mode:normal;color-interpolation:sRGB;color-interpolation-filters:linearRGB;solid-color:#000000;solid-opacity:1;fill:none;fill-opacity:1;fill-rule:evenodd;stroke:#000000;stroke-width:1;stroke-miterlimit:4;stroke-dasharray:none;stroke-opacity:1;color-rendering:auto;image-rendering:auto;shape-rendering:auto;text-rendering:auto;enable-background:accumulate"
       d="m 45.422905,90.777273 c 0,0 6.006643,2.875302 9.260417,4.724702 3.253774,1.8494 7.57801,3.825791 10.205357,6.425595 2.627347,2.5998 4.44094,6.02647 5.480653,8.50446 1.039713,2.47799 1.322917,5.85864 1.322917,5.85864"
       id="path1930"
       inkscape:connector-curvature="0"
       sodipodi:nodetypes="czzzc" />
    <path
       style="color:#000000;clip-rule:nonzero;display:inline;overflow:visible;visibility:visible;opacity:1;isolation:auto;mix-blend-mode:normal;color-interpolation:sRGB;color-interpolation-filters:linearRGB;solid-color:#000000;solid-opacity:1;fill:none;fill-opacity:1;fill-rule:evenodd;stroke:#000000;stroke-width:1;stroke-miterlimit:4;stroke-dasharray:none;stroke-opacity:1;color-rendering:auto;image-rendering:auto;shape-rendering:auto;text-rendering:auto;enable-background:accumulate"
       d="m 23.72639,102.62576 c 0,0 -3.73349,5.12063 -4.383842,8.56223 -0.650352,3.4416 -0.126707,7.74106 1.13393,11.33928 1.260637,3.59822 6.236605,9.6384 6.236605,9.6384"
       id="path1932"
       inkscape:connector-curvature="0"
       sodipodi:nodetypes="czzc" />
  </g>
</svg>
