<?xml version="1.0" encoding="UTF-8" standalone="no"?>
<!-- Created with Inkscape (http://www.inkscape.org/) -->

<svg
   xmlns:dc="http://purl.org/dc/elements/1.1/"
   xmlns:cc="http://creativecommons.org/ns#"
   xmlns:rdf="http://www.w3.org/1999/02/22-rdf-syntax-ns#"
   xmlns:svg="http://www.w3.org/2000/svg"
   xmlns="http://www.w3.org/2000/svg"
   xmlns:sodipodi="http://sodipodi.sourceforge.net/DTD/sodipodi-0.dtd"
   xmlns:inkscape="http://www.inkscape.org/namespaces/inkscape"
   width="98.378227mm"
   height="56.081875mm"
   viewBox="0 0 98.378227 56.081875"
   version="1.1"
   id="svg2711"
   inkscape:version="0.92.4 (5da689c313, 2019-01-14)"
   sodipodi:docname="neato.svg">
  <defs
     id="defs2705" />
  <sodipodi:namedview
     id="base"
     pagecolor="#ffffff"
     bordercolor="#666666"
     borderopacity="1.0"
     inkscape:pageopacity="0.0"
     inkscape:pageshadow="2"
     inkscape:zoom="3.959798"
     inkscape:cx="118.52207"
     inkscape:cy="124.94589"
     inkscape:document-units="mm"
     inkscape:current-layer="layer1"
     showgrid="false"
     inkscape:window-width="2556"
     inkscape:window-height="1400"
     inkscape:window-x="0"
     inkscape:window-y="18"
     inkscape:window-maximized="0"
     fit-margin-top="0"
     fit-margin-left="0"
     fit-margin-right="0"
     fit-margin-bottom="0" />
  <metadata
     id="metadata2708">
    <rdf:RDF>
      <cc:Work
         rdf:about="">
        <dc:format>image/svg+xml</dc:format>
        <dc:type
           rdf:resource="http://purl.org/dc/dcmitype/StillImage" />
        <dc:title></dc:title>
      </cc:Work>
    </rdf:RDF>
  </metadata>
  <g
     inkscape:label="Layer 1"
     inkscape:groupmode="layer"
     id="layer1"
     transform="translate(-27.519009,-68.57639)">
    <path
       style="color:#000000;clip-rule:nonzero;display:inline;overflow:visible;visibility:visible;opacity:1;isolation:auto;mix-blend-mode:normal;color-interpolation:sRGB;color-interpolation-filters:linearRGB;solid-color:#000000;solid-opacity:1;fill:#000000;fill-opacity:1;fill-rule:evenodd;stroke:none;stroke-width:0.2;stroke-linecap:round;stroke-linejoin:round;stroke-miterlimit:10;stroke-dasharray:none;stroke-dashoffset:0;stroke-opacity:1;color-rendering:auto;image-rendering:auto;shape-rendering:auto;text-rendering:auto;enable-background:accumulate"
       d="m 111.64472,105.12983 c 0.0472,0.23624 2.78757,4.72471 2.78757,4.72471 l 1.88988,-1.08669 c 0,0 -4.01599,-3.68526 -3.82701,-3.73251 0.18899,-0.0473 6.04762,0.18899 6.04762,0.18899 l -0.23623,-1.55915 -6.18936,0.33073 z"
       id="path3285"
       inkscape:connector-curvature="0" />
    <path
       style="fill:#373737;fill-opacity:1;stroke-width:0.35277781"
       d="m 33.241639,109.89756 c -0.834867,-1.19965 -1.88127,-3.08987 -2.325339,-4.20048 -2.176881,-5.28038 -1.861708,-3.83359 -3.002556,-8.779804 -1.96698,-8.404512 3.438973,-15.305899 15.729902,-20.081222 6.05727,-2.353396 24.103798,-8.259664 25.237297,-8.259664 0.610429,0 10.858325,1.974741 22.773095,4.388315 36.054462,7.303546 33.590392,6.688848 34.043092,8.492537 1.82264,13.265286 -8.97604,19.998548 -25.44471,35.999288 -19.953536,11.17823 -55.019206,9.85097 -67.010781,-7.55897 z m 21.595353,-4.49264 c -0.117225,-0.11722 -0.421496,-0.12976 -0.676157,-0.0278 -0.281423,0.11261 -0.19783,0.1962 0.213136,0.21313 0.371887,0.0153 0.580246,-0.0681 0.463021,-0.18529 z m -3.940633,-0.68002 c -0.694031,-0.52495 -1.25549,-0.67261 -1.25549,-0.3302 0,0.17143 1.347149,0.81067 1.763889,0.837 0.09701,0.006 -0.131765,-0.22194 -0.508399,-0.5068 z m 2.625066,0.40512 c 0,-0.0744 -0.392071,-0.21022 -0.871269,-0.30182 -0.479197,-0.0916 -0.787329,-0.0307 -0.684736,0.13526 0.180651,0.2923 1.556005,0.43952 1.556005,0.16656 z m 8.246791,-12.191327 c 0.979442,-1.950023 0.475008,-2.08061 -0.750263,-0.194227 -0.84884,1.306845 -0.998416,1.93748 -0.459535,1.93748 0.183815,0 0.728225,-0.784464 1.209798,-1.743253 z M 60.247,91.463504 c 0.979046,-0.421176 1.741092,-0.980497 1.741092,-1.277918 0,-0.384008 -0.12119,-0.428341 -0.442338,-0.161813 -1.163064,0.929812 -5.229089,3.117137 -1.298754,1.439731 z"
       id="path3283"
       inkscape:connector-curvature="0"
       sodipodi:nodetypes="cccssscccccccccsccsscssssscscc" />
    <path
       style="color:#000000;clip-rule:nonzero;display:inline;overflow:visible;visibility:visible;opacity:1;isolation:auto;mix-blend-mode:normal;color-interpolation:sRGB;color-interpolation-filters:linearRGB;solid-color:#000000;solid-opacity:1;fill:#000000;fill-opacity:1;fill-rule:evenodd;stroke:none;stroke-width:0.2;stroke-linecap:round;stroke-linejoin:round;stroke-miterlimit:10;stroke-dasharray:none;stroke-dashoffset:0;stroke-opacity:1;color-rendering:auto;image-rendering:auto;shape-rendering:auto;text-rendering:auto;enable-background:accumulate"
       d="m 80.766404,71.954211 -3.057427,2.416058 17.916615,4.174902 3.165552,-2.669457 z"
       id="path3358"
       inkscape:connector-curvature="0" />
    <path
       style="color:#000000;clip-rule:nonzero;display:inline;overflow:visible;visibility:visible;opacity:1;isolation:auto;mix-blend-mode:normal;color-interpolation:sRGB;color-interpolation-filters:linearRGB;solid-color:#000000;solid-opacity:1;fill:none;fill-opacity:1;fill-rule:evenodd;stroke:#212121;stroke-width:0.2;stroke-linecap:round;stroke-linejoin:round;stroke-miterlimit:10;stroke-dasharray:none;stroke-dashoffset:0;stroke-opacity:1;color-rendering:auto;image-rendering:auto;shape-rendering:auto;text-rendering:auto;enable-background:accumulate"
       d="m 28.322208,89.222998 c 0,0 0.785237,7.161553 2.078869,8.693453 2.694674,3.190989 13.571175,10.177069 19.087798,11.670009 9.585057,2.44105 32.444902,0.79885 40.018227,-1.18117 7.939411,-1.92052 21.662118,-15.648024 35.482518,-27.875744"
       id="path3356"
       inkscape:connector-curvature="0"
       sodipodi:nodetypes="csccc" />
    <path
       style="fill:#212121;stroke-width:0.35277781;fill-opacity:1"
       d="m 68.271947,124.42707 c 0.254659,-0.1019 0.55893,-0.0894 0.676158,0.0278 0.117225,0.11722 -0.09114,0.2006 -0.463021,0.18528 -0.410968,-0.0169 -0.494559,-0.10052 -0.213137,-0.21313 z"
       id="path3335" />
    <path
       style="fill:#000000;stroke-width:0.35277781;fill-opacity:1"
       d="m 61.106148,124.07239 c -2.876789,-0.37287 -7.042821,-1.36412 -10.103896,-2.40407 -4.534271,-1.54045 -4.610034,-1.58705 -3.979684,-2.44755 0.436327,-0.59564 0.501634,-0.60712 0.501634,-0.0882 0,0.40215 0.316183,0.61473 0.970139,0.65223 2.413436,0.13843 3.155688,0.21906 4.145139,0.45029 0.582084,0.13603 1.693334,0.31289 2.469445,0.39303 0.776111,0.0801 1.728611,0.28777 2.116667,0.4614 1.851953,0.8286 2.565307,1.01118 3.625099,0.92782 0.630322,-0.0496 1.236831,0.0567 1.347798,0.23629 0.110966,0.17955 0.545585,0.2209 0.965821,0.0919 0.420232,-0.12901 0.646006,-0.11002 0.50172,0.0422 -0.348728,0.36791 0.970824,1.26629 2.340321,1.59334 0.798724,0.19075 0.425545,0.25744 -1.372425,0.24524 -1.358195,-0.009 -2.945695,-0.0785 -3.527778,-0.15392 z"
       id="path3333" />
    <path
       style="fill:#212121;stroke-width:0.35277781;fill-opacity:1"
       d="m 62.164481,121.14028 c -0.119916,-0.19403 -0.04991,-0.35278 0.155568,-0.35278 0.205479,0 0.373599,0.15875 0.373599,0.35278 0,0.19403 -0.07001,0.35278 -0.155568,0.35278 -0.08556,0 -0.253683,-0.15875 -0.373599,-0.35278 z"
       id="path3331" />
    <path
       style="fill:#000000;stroke-width:0.35277781;fill-opacity:1"
       d="m 44.172813,118.88664 c -2.634253,-0.91233 -8.14961,-4.9829 -7.644591,-5.64203 0.16629,-0.21703 0.273681,-0.80537 0.238648,-1.30743 l -0.0637,-0.91282 3.117459,1.55832 c 3.121566,1.56037 3.810597,2.06817 2.323709,1.71251 -0.436563,-0.10443 -0.03476,0.15442 0.892893,0.57522 0.927654,0.42079 1.618181,0.94349 1.534506,1.16154 -0.08368,0.21806 0.136302,0.5766 0.488839,0.79676 0.406536,0.25389 0.604487,0.73272 0.54121,1.30915 -0.127841,1.16461 -0.167828,1.18557 -1.428976,0.74878 z"
       id="path3329" />
    <path
       style="fill:#212121;stroke-width:0.35277781;fill-opacity:1"
       d="m 40.292257,115.84861 c -0.279881,-0.45285 0.04407,-0.44841 0.905137,0.0124 0.3753,0.20086 0.682363,0.28346 0.682363,0.18356 0,-0.0999 -0.650383,-0.51343 -1.445297,-0.91897 -0.794913,-0.40553 -1.364135,-0.81849 -1.264936,-0.91769 0.0992,-0.0992 0.530614,0.007 0.958703,0.23619 0.432944,0.23171 0.6802,0.25776 0.557182,0.0587 -0.121637,-0.19682 -0.03409,-0.4202 0.194549,-0.49641 0.337838,-0.11262 -3.212817,-2.39115 -3.726142,-2.39115 -0.08278,0 -0.105577,0.27781 -0.05065,0.61736 0.05493,0.33955 -0.04872,0.8047 -0.230324,1.03366 -0.23118,0.29147 0.230574,0.79394 1.539902,1.6757 2.006973,1.35157 2.217177,1.45297 1.879512,0.90661 z"
       id="path3327" />
    <path
       style="fill:#212121;stroke-width:0.35277781;fill-opacity:1"
       d="m 38.881146,114.94026 c -0.388055,-0.29322 -0.725399,-0.68504 -0.749653,-0.87072 -0.02425,-0.18568 -0.07609,-0.37728 -0.115186,-0.42579 -0.0391,-0.0485 -0.124959,-0.3707 -0.190801,-0.71598 -0.107799,-0.56531 0.009,-0.55044 1.173519,0.14946 1.558724,0.93681 1.853716,1.19444 1.028649,0.89838 -0.339549,-0.12183 -0.866636,-0.12586 -1.171305,-0.009 -0.441818,0.16955 -0.35256,0.34535 0.440973,0.86855 0.547203,0.36079 0.836165,0.65198 0.642138,0.64709 -0.194028,-0.005 -0.670278,-0.24881 -1.058334,-0.54203 z"
       id="path3325" />
    <path
       style="fill:#212121;stroke-width:0.35277781;fill-opacity:1"
       d="m 38.881146,113.37917 c -0.119916,-0.19403 -0.376779,-0.35278 -0.570806,-0.35278 -0.194028,0 -0.254665,0.15875 -0.13475,0.35278 0.119916,0.19403 0.376779,0.35278 0.570807,0.35278 0.194028,0 0.254665,-0.15875 0.134749,-0.35278 z"
       id="path3323" />
    <path
       style="fill:#212121;stroke-width:0.35277781;fill-opacity:1"
       d="m 43.643646,115.84861 c -0.291041,-0.18808 -0.687916,-0.34197 -0.881944,-0.34197 -0.194028,0 -0.114653,0.15389 0.176389,0.34197 0.291041,0.18809 0.687917,0.34198 0.881944,0.34198 0.194028,0 0.114653,-0.15389 -0.176389,-0.34198 z"
       id="path3321" />
    <path
       style="fill:#000000;stroke-width:0.35277781;fill-opacity:1"
       d="m 67.754104,117.77324 c -0.124425,-0.32425 -0.32174,-1.05655 -0.438482,-1.62734 -0.29688,-1.45159 -0.924119,-1.10066 -0.887359,0.49646 0.03628,1.5761 -0.790074,1.84038 -1.103073,0.35278 -0.267832,-1.27293 -0.642486,-1.95341 -1.172827,-2.13019 -0.415146,-0.13839 -0.3695,0.44846 0.19564,2.5154 0.131801,0.48205 0.01312,0.6181 -0.459737,0.52703 -0.396857,-0.0764 -0.72825,-0.56696 -0.878138,-1.29983 -0.247057,-1.20797 -0.858993,-2.09791 -1.204782,-1.75211 -0.10698,0.10697 -0.04516,0.85922 0.137386,1.67166 0.289556,1.28871 0.257436,1.46282 -0.25176,1.36476 -0.367185,-0.0707 -0.700599,-0.66674 -0.898948,-1.60699 -0.308483,-1.46233 -0.346569,-1.49473 -1.764472,-1.50105 -3.990346,-0.0178 -11.912835,-1.61176 -16.089461,-3.23712 -2.242833,-0.87281 -6.702778,-3.04483 -6.702778,-3.26429 0,-0.0819 1.150937,0.38013 2.557639,1.02683 3.959249,1.8202 9.99031,3.40409 14.728473,3.86803 l 1.940278,0.18999 -2.116667,-0.72483 c -1.164167,-0.39865 -2.354792,-0.7837 -2.645834,-0.85567 -2.501235,-0.61847 -8.261597,-3.23555 -11.1125,-5.0487 -3.852724,-2.45029 -9.080371,-8.175558 -7.464969,-8.175558 0.269858,0 0.869248,0.294373 1.331976,0.654161 1.642131,1.276817 6.177283,3.535247 9.265221,4.613917 4.405566,1.53895 9.060138,2.5137 14.506662,3.03798 3.247919,0.31264 15.584372,0.27285 16.109919,-0.052 0.225559,-0.13941 4.688357,-0.27326 9.917325,-0.29746 11.532708,-0.0534 11.717885,0.0333 6.604702,3.09255 -2.637779,1.57819 -4.572709,2.31641 -8.113889,3.09564 l -2.998611,0.65985 2.293055,-0.19589 c 1.962542,-0.16764 5.552553,-0.72689 8.819445,-1.37387 0.48507,-0.0961 0.16757,0.0658 -0.705555,0.35961 -3.17941,1.07002 -11.131643,2.33033 -15.99521,2.535 l -4.88271,0.20547 0.225326,1.50261 c 0.22938,1.52961 -0.306422,2.51678 -0.745285,1.37312 z"
       id="path3319" />
    <path
       style="fill:#212121;stroke-width:0.35277781;fill-opacity:1"
       d="m 35.368433,110.9341 c -0.111629,-0.18062 -0.06808,-0.41176 0.09677,-0.51365 0.164855,-0.10188 0.299736,0.0459 0.299736,0.3284 0,0.59485 -0.111244,0.64682 -0.396509,0.18525 z"
       id="path3317" />
    <path
       style="fill:#212121;stroke-width:0.35277781;fill-opacity:1"
       d="m 114.07007,102.79584 c 0.119,-0.48507 0.43323,-1.3582 0.69828,-1.94028 0.38705,-0.84999 0.43932,-0.884714 0.26555,-0.17639 -0.119,0.48507 -0.43323,1.35819 -0.69828,1.94028 -0.38705,0.84998 -0.43933,0.88471 -0.26555,0.17639 z"
       id="path3315" />
    <path
       style="fill:#212121;stroke-width:0.35277781;fill-opacity:1"
       d="m 43.643646,101.69346 c -4.052391,-0.65651 -6.868347,-2.349734 -7.738668,-4.653229 -0.623611,-1.650525 -0.457117,-1.673242 1.653251,-0.225575 2.186772,1.500079 4.928335,2.243846 6.852451,1.859023 0.963375,-0.192675 0.704854,-0.307328 -1.867036,-0.828021 -1.641885,-0.332409 -3.640981,-0.938911 -4.442435,-1.347782 -1.423178,-0.726052 -1.448359,-0.770328 -1.07889,-1.897027 0.208064,-0.634494 0.419686,-1.328775 0.470271,-1.542848 0.05944,-0.25152 1.007778,-0.07365 2.680543,0.50276 2.283487,0.786855 3.191442,0.895094 7.703847,0.918389 4.109465,0.02122 5.482031,-0.101415 6.980481,-0.623663 1.025861,-0.357538 2.117594,-0.553218 2.426072,-0.434844 0.326486,0.125285 0.758586,-0.04533 1.033995,-0.408263 0.448356,-0.59085 0.473712,-0.59117 0.484344,-0.0061 0.0062,0.339549 0.188485,0.617361 0.405142,0.617361 0.220331,0 0.312559,0.311136 0.209289,0.706043 -0.101549,0.388323 -0.04069,0.617079 0.135244,0.508347 0.175933,-0.108733 0.319878,-0.02958 0.319878,0.175901 0,0.205479 0.299274,0.373598 0.665053,0.373598 0.899436,0 2.928356,-0.87511 2.657317,-1.14615 -0.119437,-0.119437 0.08547,-0.138019 0.455341,-0.0413 0.3876,0.10136 1.037554,-0.140844 1.534202,-0.571715 l 0.861699,-0.747577 -0.879179,0.245921 c -0.724641,0.202696 -0.808129,0.159467 -0.474969,-0.245936 0.222313,-0.270523 0.517433,-1.40677 0.655824,-2.524994 0.138391,-1.118224 0.361488,-2.101038 0.495776,-2.184032 0.134285,-0.08299 0.704984,0.33735 1.268219,0.934097 1.010842,1.070992 1.012888,1.081448 0.158351,0.810229 -0.774696,-0.245879 -0.8151,-0.213782 -0.384309,0.305287 1.398782,1.685432 1.761945,-0.206809 0.447785,-2.333166 -1.272297,-2.058617 -0.912012,-2.665526 0.696789,-1.173762 0.538663,0.499476 3.231303,1.671819 6.508715,2.833814 5.857374,2.076714 8.863983,2.596455 3.676075,0.63547 -1.650206,-0.623763 -3.595035,-1.437292 -4.321849,-1.807843 -1.099446,-0.560529 -1.217697,-0.719074 -0.703799,-0.943622 -0.03425,-0.102159 5.507567,-3.327136 5.380183,-3.364096 -0.742203,-0.212044 -0.767356,-0.257539 -0.15875,-0.287132 0.397757,-0.01934 0.88041,0.122049 1.072561,0.3142 0.230635,0.230636 0.763351,0.230636 1.567532,0 1.607863,-0.461129 7.749213,-0.458425 7.749213,0.0034 0,0.194027 -0.515938,0.371034 -1.146528,0.393346 l -1.146528,0.04057 1.326812,0.257309 c 1.811605,0.351323 2.065478,0.719887 0.495875,0.719887 -0.711437,0 -1.293506,0.119062 -1.293488,0.264583 3.1e-5,0.245515 0.827119,0.316145 5.454364,0.465783 1.369481,0.02775 2.404179,0.485082 3.495555,1.200179 -6.659702,1.716102 0.348914,5.267809 0.318393,5.735574 -0.05406,0.510509 0.170956,0.837769 0.689102,1.002222 0.915377,0.290529 1.733518,1.042546 1.446488,1.329576 -0.112272,0.112274 0.490601,0.136163 1.339716,0.05309 1.322704,-0.129411 1.430154,-0.09438 0.750104,0.24455 -0.43657,0.217579 -0.793753,0.530088 -0.793753,0.694466 0,0.378739 0.10729,0.374739 1.211753,-0.04518 1.36449,-0.518777 1.08635,-0.04854 -0.31848,0.538436 -2.434154,1.017055 -4.145169,0.691233 -13.805491,-2.628924 -5.025017,-1.72705 -11.081083,-3.849357 -13.457923,-4.71624 -4.744554,-1.730435 -4.887059,-1.697227 -3.80722,0.887189 2.035905,4.872609 -4.969246,9.872661 -15.674499,11.187961 -3.480818,0.42767 -7.489038,0.41611 -10.239811,-0.0295 z"
       id="path3313" />
    <path
       style="fill:#212121;stroke-width:0.35277781;fill-opacity:1"
       d="m 68.338092,91.539973 c 0,-0.175863 -0.3175,-0.236722 -0.705555,-0.135244 -0.388056,0.101479 -0.705556,0.245367 -0.705556,0.319751 0,0.07438 0.3175,0.135244 0.705556,0.135244 0.388055,0 0.705555,-0.143888 0.705555,-0.319751 z"
       id="path3311" />
    <path
       style="fill:#212121;stroke-width:0.35277781;fill-opacity:1"
       d="m 43.11448,93.742455 c -1.288071,-0.277658 -3.351389,-1.27917 -3.351389,-1.626727 0,-0.188318 0.238125,-0.144769 0.529166,0.09677 0.383086,0.317933 0.529167,0.326431 0.529167,0.03078 0,-0.307937 0.185637,-0.309036 0.754728,-0.0045 1.378987,0.738012 2.919395,1.091197 5.94805,1.363773 l 2.998611,0.269871 -3.351389,0.01104 c -1.843264,0.0061 -3.668889,-0.0574 -4.056944,-0.14105 z"
       id="path3309" />
    <path
       style="fill:#212121;stroke-width:0.35277781;fill-opacity:1"
       d="m 105.73254,93.49042 c 0,-0.07326 0.27781,-0.351069 0.61736,-0.617361 0.55953,-0.43881 0.572,-0.426333 0.1332,0.133193 -0.46086,0.587639 -0.75056,0.774516 -0.75056,0.484168 z"
       id="path3307" />
    <path
       style="fill:#212121;stroke-width:0.35277781;fill-opacity:1"
       d="m 107.49643,91.918652 c 0,-0.200014 0.51594,-0.717512 1.14653,-1.149996 0.63059,-0.432483 1.58309,-1.187369 2.11666,-1.677523 0.53358,-0.490155 0.97014,-0.797822 0.97014,-0.683705 0,0.114117 -0.9525,1.03265 -2.11666,2.041185 -1.16417,1.008535 -2.11667,1.670052 -2.11667,1.470039 z"
       id="path3305" />
    <path
       style="fill:#212121;stroke-width:0.35277781;fill-opacity:1"
       d="m 113.47918,86.63594 c 0.43835,-0.641761 0.89032,-1.073513 1.00439,-0.959448 0.11406,0.114064 -0.24459,0.639142 -0.797,1.166839 l -1.00439,0.959448 z"
       id="path3303" />
    <path
       style="fill:#212121;stroke-width:0.35277781;fill-opacity:1"
       d="m 91.268649,85.312515 c 0,-0.302493 0.15875,-0.451874 0.352778,-0.331958 0.194028,0.119916 0.352778,0.36741 0.352778,0.549987 0,0.182577 -0.15875,0.331957 -0.352778,0.331957 -0.194028,0 -0.352778,-0.247494 -0.352778,-0.549986 z"
       id="path3301" />
    <path
       style="fill:#212121;stroke-width:0.35277781;fill-opacity:1"
       d="m 76.658819,83.057555 c 0.177281,-0.170437 1.27483,-0.400279 2.438996,-0.510761 1.512514,-0.143539 1.814591,-0.112365 1.058334,0.109222 -1.692865,0.496017 -3.853653,0.744103 -3.49733,0.401539 z"
       id="path3299" />
    <path
       style="fill:#212121;stroke-width:0.35277781;fill-opacity:1"
       d="m 85.800594,83.040275 c 0.119916,-0.194028 0.376777,-0.352778 0.570805,-0.352778 0.194027,0 0.254666,0.15875 0.13475,0.352778 -0.119916,0.194028 -0.376777,0.352778 -0.570805,0.352778 -0.194028,0 -0.254667,-0.15875 -0.13475,-0.352778 z"
       id="path3297" />
    <path
       style="fill:#212121;stroke-width:0.35277781;fill-opacity:1"
       d="m 116.90384,83.157868 c -0.12936,-0.129352 -0.23519,-0.399227 -0.23519,-0.599723 0,-0.221052 0.16431,-0.200223 0.41745,0.05292 0.22961,0.2296 0.33544,0.499475 0.23519,0.599722 -0.10025,0.100248 -0.2881,0.07644 -0.41745,-0.05292 z"
       id="path3295" />
    <path
       style="fill:#212121;stroke-width:0.35277781;fill-opacity:1"
       d="m 49.288091,80.965523 c -0.873125,-0.343843 -2.351207,-0.907625 -3.284628,-1.252848 -0.93342,-0.345222 -1.636561,-0.688244 -1.562536,-0.762269 0.07402,-0.07403 1.948982,0.486304 4.166572,1.245175 2.21759,0.758872 3.635106,1.383219 3.150037,1.387439 -0.48507,0.0042 -1.59632,-0.273653 -2.469445,-0.617497 z"
       id="path3293" />
    <path
       style="color:#000000;clip-rule:nonzero;display:inline;overflow:visible;visibility:visible;opacity:1;isolation:auto;mix-blend-mode:normal;color-interpolation:sRGB;color-interpolation-filters:linearRGB;solid-color:#000000;solid-opacity:1;fill:none;fill-opacity:1;fill-rule:evenodd;stroke:#ffffff;stroke-width:0.2;stroke-linecap:round;stroke-linejoin:bevel;stroke-miterlimit:10;stroke-dasharray:none;stroke-dashoffset:0;stroke-opacity:1;color-rendering:auto;image-rendering:auto;shape-rendering:auto;text-rendering:auto;enable-background:accumulate"
       d="m 75.427491,70.914777 c 0,0 -2.504094,1.937128 -2.409598,1.984375 0.09449,0.04725 4.44122,0.992187 4.44122,0.992187 l 2.574962,-2.102493 z"
       id="path3360"
       inkscape:connector-curvature="0"
       sodipodi:nodetypes="ccccc" />
    <path
       style="color:#000000;clip-rule:nonzero;display:inline;overflow:visible;visibility:visible;opacity:1;isolation:auto;mix-blend-mode:normal;color-interpolation:sRGB;color-interpolation-filters:linearRGB;solid-color:#000000;solid-opacity:1;fill:none;fill-opacity:1;fill-rule:evenodd;stroke:#ffffff;stroke-width:0.2;stroke-linecap:round;stroke-linejoin:bevel;stroke-miterlimit:10;stroke-dasharray:none;stroke-dashoffset:0;stroke-opacity:1;color-rendering:auto;image-rendering:auto;shape-rendering:auto;text-rendering:auto;enable-background:accumulate"
       d="m 99.767737,76.37293 -2.527716,2.362351 c 0.09449,0.04725 4.746649,1.255404 4.746649,1.255404 l 2.48215,-2.578321 z"
       id="path3360-3"
       inkscape:connector-curvature="0"
       sodipodi:nodetypes="ccccc" />
    <path
       style="color:#000000;clip-rule:nonzero;display:inline;overflow:visible;visibility:visible;opacity:1;isolation:auto;mix-blend-mode:normal;color-interpolation:sRGB;color-interpolation-filters:linearRGB;solid-color:#000000;solid-opacity:1;fill:none;fill-opacity:1;fill-rule:evenodd;stroke:#ffffff;stroke-width:0.2;stroke-linecap:round;stroke-linejoin:bevel;stroke-miterlimit:10;stroke-dasharray:none;stroke-dashoffset:0;stroke-opacity:1;color-rendering:auto;image-rendering:auto;shape-rendering:auto;text-rendering:auto;enable-background:accumulate"
       d="m 37.370155,91.162682 c -0.06417,1.885215 2.838308,2.772172 4.646785,2.978375 5.752822,0.655938 13.332495,0.792584 17.808273,-1.956039 3.065349,-1.882463 7.097257,-5.200908 4.487276,-8.208588 -4.200547,-4.840612 -26.674658,-0.677377 -26.942334,7.186252 z"
       id="path3377"
       inkscape:connector-curvature="0"
       sodipodi:nodetypes="sssss" />
    <path
       style="color:#000000;clip-rule:nonzero;display:inline;overflow:visible;visibility:visible;opacity:1;isolation:auto;mix-blend-mode:normal;color-interpolation:sRGB;color-interpolation-filters:linearRGB;solid-color:#000000;solid-opacity:1;fill:none;fill-opacity:1;fill-rule:evenodd;stroke:#000000;stroke-width:0.2;stroke-linecap:round;stroke-linejoin:bevel;stroke-miterlimit:10;stroke-dasharray:none;stroke-dashoffset:0;stroke-opacity:1;color-rendering:auto;image-rendering:auto;shape-rendering:auto;text-rendering:auto;enable-background:accumulate"
       d="m 35.704138,95.859974 c 0.981966,5.996176 10.962688,7.215556 19.812651,5.733196 8.849962,-1.48236 16.569165,-5.666458 13.428996,-12.749021"
       id="path3380"
       inkscape:connector-curvature="0"
       sodipodi:nodetypes="csc" />
  </g>
</svg>
